<?xml version="1.0" standalone="no"?>
<!DOCTYPE svg PUBLIC "-//W3C//DTD SVG 20010904//EN"
 "http://www.w3.org/TR/2001/REC-SVG-20010904/DTD/svg10.dtd">
<svg version="1.0" xmlns="http://www.w3.org/2000/svg"
 width="1460.000000pt" height="1460.000000pt" viewBox="0 0 1460.000000 1460.000000"
 preserveAspectRatio="xMidYMid meet">
<metadata>
Created by potrace 1.14, written by Peter Selinger 2001-2017
</metadata>
<g transform="translate(0.000000,1460.000000) scale(0.100000,-0.100000)"
fill="#000000" stroke="none">
<path d="M6970 14543 c-20 -8 -30 -24 -30 -51 0 -32 61 -58 110 -46 44 11 63
53 37 82 -16 18 -85 26 -117 15z"/>
<path d="M7143 14543 c-45 -9 -12 -53 50 -68 14 -4 43 -26 65 -50 25 -27 54
-48 78 -54 22 -7 50 -17 63 -25 19 -11 21 -14 7 -19 -9 -4 -16 -16 -16 -27 0
-15 7 -20 25 -20 29 0 50 31 33 48 -9 9 -1 12 33 12 34 0 58 -8 99 -35 44 -28
64 -35 105 -35 41 0 59 -6 102 -36 54 -37 83 -39 83 -6 0 10 -7 27 -15 38 -32
42 -14 64 52 64 28 0 45 -9 78 -39 42 -38 108 -66 143 -59 24 5 43 51 49 118
5 54 4 59 -20 74 -21 14 -34 15 -88 6 -35 -5 -94 -10 -130 -10 -56 0 -79 -6
-153 -41 -74 -34 -93 -40 -127 -34 -33 6 -43 13 -56 41 -21 42 -31 46 -123 45
-85 -1 -99 6 -126 64 -14 30 -27 41 -49 46 -34 7 -129 8 -162 2z"/>
<path d="M7680 14526 c-21 -26 24 -73 84 -87 67 -14 106 -1 106 36 0 21 -9 30
-42 45 -51 23 -130 26 -148 6z"/>
<path d="M6553 14513 c-22 -8 3 -39 68 -82 34 -23 72 -41 86 -41 29 0 93 28
93 41 0 22 -42 49 -75 49 -22 0 -43 8 -55 20 -19 19 -84 27 -117 13z"/>
<path d="M6328 14493 c-14 -2 -32 -11 -39 -20 -11 -13 -10 -17 6 -29 22 -16
78 -18 106 -4 25 14 25 50 0 50 -11 0 -25 2 -33 3 -7 2 -25 2 -40 0z"/>
<path d="M8365 14453 c-65 -15 -115 -37 -136 -59 l-24 -26 28 -24 c35 -30 66
-30 164 0 43 13 111 26 151 29 68 6 102 18 102 37 0 17 -241 54 -285 43z"/>
<path d="M6780 14389 c-41 -23 -109 -54 -151 -71 -86 -33 -114 -56 -104 -87 8
-26 42 -35 79 -22 38 15 46 14 46 -8 0 -23 14 -34 60 -50 19 -6 56 -34 81 -61
25 -28 53 -50 62 -50 9 0 28 11 43 23 32 28 27 43 -22 63 -19 8 -46 32 -61 55
-28 42 -56 59 -99 59 -13 0 -24 4 -24 10 0 14 46 23 79 17 98 -20 228 93 169
146 -32 27 -77 20 -158 -24z"/>
<path d="M5990 14411 c-49 -10 -78 -27 -85 -51 -20 -63 98 -68 163 -8 24 23
30 58 10 58 -7 0 -22 2 -33 4 -11 2 -36 1 -55 -3z"/>
<path d="M6299 14379 c-18 -18 -20 -28 -14 -66 4 -25 9 -52 12 -59 6 -16 19
-15 -202 -18 -88 -1 -166 -5 -172 -9 -7 -5 -13 -19 -13 -32 0 -13 6 -27 13
-32 6 -4 57 -8 112 -8 88 0 108 -4 165 -29 60 -27 71 -28 165 -24 132 6 193
36 153 76 -7 7 -25 12 -40 12 -22 0 -29 5 -33 28 -4 15 -12 38 -20 52 -7 14
-16 43 -20 65 -4 22 -12 46 -18 53 -15 19 -65 14 -88 -9z"/>
<path d="M5703 14369 c-29 -11 -35 -24 -39 -86 -2 -32 -10 -63 -19 -73 -24
-27 -18 -68 14 -101 33 -33 47 -35 96 -15 32 14 65 59 65 90 0 8 -15 34 -33
58 -28 36 -32 50 -29 84 3 34 0 42 -15 46 -10 3 -28 2 -40 -3z"/>
<path d="M8822 14349 c50 -67 183 -112 221 -74 40 39 10 61 -125 89 -42 9 -86
16 -98 16 -20 0 -20 0 2 -31z"/>
<path d="M8524 14325 c-24 -24 -25 -28 -11 -48 20 -31 75 -34 110 -7 48 38 30
80 -35 80 -28 0 -46 -7 -64 -25z"/>
<path d="M7030 14329 c-39 -16 -60 -40 -60 -70 0 -36 18 -53 83 -78 120 -44
215 -47 231 -6 7 18 -33 60 -68 71 -11 4 -38 27 -59 50 -41 47 -72 55 -127 33z"/>
<path d="M5305 14264 c-11 -3 -30 -7 -42 -10 -17 -3 -23 -12 -23 -30 0 -19 9
-29 38 -42 20 -10 56 -30 79 -45 24 -15 50 -27 58 -27 47 0 86 60 65 100 -19
35 -120 66 -175 54z"/>
<path d="M8738 14259 c-39 -22 -6 -79 44 -79 41 0 58 10 58 35 0 44 -59 70
-102 44z"/>
<path d="M7565 14231 c-60 -25 -78 -99 -33 -134 24 -18 32 -19 67 -8 71 21 95
91 45 130 -28 22 -47 25 -79 12z"/>
<path d="M9356 14188 c18 -69 18 -113 -2 -132 -21 -22 -22 -21 -59 21 -39 45
-65 41 -65 -12 0 -46 31 -79 68 -70 23 4 29 1 39 -22 9 -20 33 -38 85 -63 55
-26 77 -43 89 -67 24 -49 14 -79 -32 -97 -29 -12 -39 -22 -39 -38 0 -28 -8
-39 -42 -61 -36 -23 -35 -39 3 -71 52 -44 112 -34 135 24 10 24 28 44 54 59
36 20 48 22 132 15 72 -5 101 -3 129 9 49 20 107 9 195 -38 96 -50 131 -41
104 29 -9 24 -7 26 15 26 46 0 57 77 15 100 -30 16 -47 12 -85 -21 l-35 -31
-58 16 c-69 19 -146 20 -260 4 -79 -12 -85 -11 -98 7 -8 11 -17 36 -21 57 -5
34 -12 42 -64 70 -70 39 -84 75 -52 130 34 59 94 43 107 -27 8 -41 47 -90 89
-111 30 -16 36 -16 152 5 47 9 52 7 80 -20 61 -57 182 -77 240 -39 22 15 47
20 94 20 63 0 64 0 46 20 -28 31 -99 54 -123 41 -14 -7 -51 -9 -109 -4 -84 6
-88 8 -131 47 -41 38 -49 41 -91 37 -97 -7 -137 -5 -169 8 -47 20 -40 50 16
69 74 24 57 39 -109 91 -110 35 -238 71 -252 71 -3 0 1 -24 9 -52z"/>
<path d="M8405 14215 c-38 -7 -89 -14 -111 -14 -50 -1 -72 -21 -49 -44 40 -40
287 -63 333 -31 27 19 29 64 4 87 -22 20 -77 21 -177 2z"/>
<path d="M9133 14213 c-20 -7 -15 -38 8 -59 14 -13 36 -18 72 -19 49 0 52 2
55 26 2 21 -3 29 -31 43 -34 15 -79 20 -104 9z"/>
<path d="M8886 14174 c-22 -21 -20 -50 5 -91 26 -41 66 -63 116 -63 32 0 41
-5 55 -30 21 -37 62 -49 88 -25 11 10 20 26 20 37 0 18 -7 22 -75 47 -18 7
-42 30 -58 56 -50 79 -113 108 -151 69z"/>
<path d="M4824 14122 c-106 -36 -129 -51 -120 -80 4 -12 20 -29 36 -37 25 -13
34 -13 76 0 42 13 51 13 71 0 53 -35 133 1 133 60 0 23 -3 25 -50 25 -49 0
-51 1 -48 26 2 15 -1 28 -7 30 -5 2 -46 -9 -91 -24z"/>
<path d="M8735 14143 c-48 -12 -61 -57 -25 -93 40 -40 113 -17 113 34 0 43
-41 70 -88 59z"/>
<path d="M5888 14109 c-56 -8 -111 -30 -122 -48 -9 -14 21 -39 58 -50 61 -16
186 20 210 62 9 14 7 21 -8 33 -22 15 -50 16 -138 3z"/>
<path d="M7143 14068 c-76 -56 -93 -79 -73 -103 26 -31 128 -6 196 49 30 24
35 33 32 64 -3 35 -5 37 -43 40 -35 2 -50 -5 -112 -50z"/>
<path d="M7833 14105 c-48 -34 -17 -77 83 -115 88 -32 174 -22 174 21 0 19
-53 59 -104 78 -80 29 -127 34 -153 16z"/>
<path d="M5130 14090 c-24 -24 -25 -34 -4 -54 23 -23 51 -20 70 9 34 52 -21
90 -66 45z"/>
<path d="M5447 14096 c-83 -23 -116 -76 -59 -97 81 -31 236 54 176 98 -22 16
-54 16 -117 -1z"/>
<path d="M8525 14092 c-27 -6 -55 -32 -55 -52 0 -46 83 -67 120 -30 45 45 4
96 -65 82z"/>
<path d="M6592 14068 c-39 -39 29 -101 83 -76 37 16 40 40 10 65 -28 25 -74
30 -93 11z"/>
<path d="M7488 14072 c-35 -4 -58 -36 -58 -80 0 -25 -8 -41 -32 -62 -31 -29
-31 -30 -13 -50 21 -23 58 -26 95 -7 18 9 27 25 33 57 5 26 19 54 33 67 27 24
31 45 12 60 -19 15 -40 19 -70 15z"/>
<path d="M8250 14005 c-10 -12 -10 -22 1 -52 24 -61 103 -103 150 -79 35 17
34 39 -2 81 -53 60 -121 83 -149 50z"/>
<path d="M6195 13991 c-52 -13 -76 -31 -96 -74 -34 -75 -18 -126 35 -113 14 3
53 29 87 56 34 28 72 50 83 50 29 0 86 37 86 55 0 9 -12 20 -26 25 -29 11
-124 12 -169 1z"/>
<path d="M5502 13973 c-36 -18 -50 -52 -36 -92 14 -38 49 -39 88 -3 44 42 54
43 118 9 66 -34 106 -29 122 16 14 40 -2 49 -96 57 -46 4 -90 10 -98 13 -41
15 -68 15 -98 0z"/>
<path d="M8683 13979 c-103 -31 -21 -130 110 -132 79 -1 97 51 37 108 -32 31
-93 41 -147 24z"/>
<path d="M5030 13963 c-38 -19 -50 -53 -30 -78 22 -27 90 -38 146 -26 66 15
96 43 92 84 l-3 32 -85 3 c-65 2 -93 -2 -120 -15z"/>
<path d="M4710 13954 c-30 -8 -66 -23 -80 -34 -60 -47 -74 -51 -150 -38 -86
15 -96 8 -113 -80 -11 -60 -12 -61 -61 -84 -43 -20 -53 -30 -67 -68 -13 -37
-26 -51 -75 -81 -34 -21 -78 -60 -104 -93 -54 -68 -93 -96 -137 -96 -28 0 -33
4 -33 24 0 33 -36 75 -81 93 -46 18 -48 27 -14 49 21 13 40 16 93 11 88 -9
117 8 171 102 39 66 44 70 94 85 29 9 71 29 94 45 22 16 54 36 71 45 25 13 32
23 32 46 0 36 -14 38 -92 11 -73 -25 -118 -48 -149 -78 -14 -13 -50 -30 -79
-38 -30 -8 -58 -22 -64 -32 -6 -10 -17 -31 -26 -48 -33 -65 -184 -125 -239
-96 -13 7 -26 3 -51 -17 -19 -15 -52 -36 -74 -48 -25 -13 -42 -29 -44 -42 -3
-17 4 -23 40 -32 24 -6 47 -12 51 -13 5 -2 -14 -22 -42 -45 -75 -63 -65 -109
15 -73 38 17 223 35 252 24 18 -7 15 -44 -8 -78 -11 -16 -48 -52 -82 -80 -37
-29 -72 -68 -84 -92 -12 -23 -41 -57 -65 -76 -66 -50 -63 -86 5 -87 24 0 48
19 139 115 60 64 127 125 148 135 45 23 54 39 62 100 6 50 34 80 74 80 84 0
159 54 188 135 23 64 59 98 134 125 34 13 83 42 113 68 103 88 122 96 222 102
l91 5 3 55 c2 30 8 61 15 68 9 11 7 17 -8 28 -22 16 -16 17 -85 -2z"/>
<path d="M7017 13932 c-10 -10 -17 -28 -17 -40 0 -15 -10 -24 -35 -32 -74 -24
-45 -90 40 -90 55 0 84 28 67 65 -6 14 -9 38 -6 55 4 18 1 36 -6 45 -16 19
-23 19 -43 -3z"/>
<path d="M6433 13933 c-20 -8 -15 -37 10 -61 33 -31 104 -54 128 -42 20 11 25
45 10 68 -15 24 -117 48 -148 35z"/>
<path d="M9023 13924 c-7 -18 20 -44 44 -44 20 0 27 28 13 45 -17 20 -49 19
-57 -1z"/>
<path d="M7853 13875 c-36 -15 -53 -56 -33 -80 28 -34 155 -30 191 6 24 24 24
44 -1 69 -24 24 -107 27 -157 5z"/>
<path d="M5852 13835 c-57 -41 17 -117 115 -119 48 -1 63 12 56 49 -13 63
-119 107 -171 70z"/>
<path d="M8205 13840 c-29 -11 -48 -37 -41 -55 15 -40 165 -60 197 -28 44 44
-85 112 -156 83z"/>
<path d="M5281 13826 c-7 -8 -15 -30 -18 -50 -3 -20 -12 -41 -19 -47 -18 -15
-18 -53 1 -69 21 -18 71 -3 99 30 47 57 42 120 -10 140 -33 13 -39 13 -53 -4z"/>
<path d="M9166 13814 c-39 -13 -58 -13 -96 -4 -54 13 -82 4 -101 -31 -8 -16
-7 -25 7 -40 28 -31 79 -35 133 -9 37 17 62 21 107 18 58 -3 59 -3 62 25 7 56
-24 68 -112 41z"/>
<path d="M4775 13776 c-15 -11 -20 -26 -20 -63 l0 -48 -55 -21 c-94 -38 -107
-104 -20 -104 57 0 97 18 110 49 15 36 47 69 90 89 44 22 53 63 18 86 -36 24
-99 30 -123 12z"/>
<path d="M6612 13778 c-32 -32 6 -81 60 -76 26 2 34 8 36 26 7 47 -63 83 -96
50z"/>
<path d="M7647 13783 c-13 -13 -7 -32 14 -44 17 -9 25 -8 37 4 8 9 12 23 9 31
-6 16 -48 22 -60 9z"/>
<path d="M10490 13761 c0 -45 37 -81 125 -121 102 -48 147 -60 168 -48 44 24
5 59 -157 142 -60 31 -115 56 -122 56 -9 0 -14 -11 -14 -29z"/>
<path d="M5552 13728 c-20 -20 -14 -47 13 -54 52 -13 93 14 79 51 -7 18 -74
21 -92 3z"/>
<path d="M8728 13729 c-10 -5 -18 -16 -18 -23 0 -23 37 -48 67 -44 37 4 44 39
11 62 -26 18 -36 19 -60 5z"/>
<path d="M6313 13715 c-31 -22 -29 -59 3 -84 l26 -20 -35 -15 c-41 -17 -50
-29 -42 -56 5 -15 15 -20 40 -20 65 0 106 33 86 68 -7 12 -3 22 15 39 13 12
24 31 24 41 0 44 -78 75 -117 47z"/>
<path d="M7190 13717 c-35 -18 -38 -50 -5 -65 44 -20 105 3 105 39 0 35 -54
49 -100 26z"/>
<path d="M8505 13703 c-43 -11 -61 -53 -33 -81 31 -31 128 -2 128 38 0 40 -38
57 -95 43z"/>
<path d="M7470 13675 c-47 -16 -52 -48 -11 -69 59 -31 110 -12 97 37 -8 34
-43 47 -86 32z"/>
<path d="M10212 13674 c-44 -31 -13 -85 51 -87 35 -1 67 16 67 35 0 17 -58 68
-77 68 -10 0 -29 -7 -41 -16z"/>
<path d="M6698 13664 c-30 -16 -37 -51 -16 -72 31 -31 128 -2 128 38 0 22 -36
50 -65 50 -11 -1 -32 -8 -47 -16z"/>
<path d="M8003 13668 c-24 -12 -38 -41 -28 -58 3 -5 26 -10 49 -10 55 0 92 26
82 58 -6 18 -15 22 -44 21 -20 0 -47 -5 -59 -11z"/>
<path d="M4899 13640 c-22 -13 -43 -65 -35 -86 5 -14 14 -15 54 -9 54 9 117 9
182 0 58 -7 91 16 93 66 l2 34 -45 -2 c-124 -7 -148 -7 -190 0 -26 4 -52 3
-61 -3z"/>
<path d="M8830 13627 c-14 -7 -26 -22 -28 -33 -7 -51 85 -96 121 -59 23 22 21
39 -5 69 -29 31 -57 39 -88 23z"/>
<path d="M8223 13612 c-51 -8 -54 -55 -6 -84 49 -28 99 -27 108 3 5 15 -1 29
-20 49 -29 30 -48 38 -82 32z"/>
<path d="M10448 13599 c-41 -23 -5 -79 50 -79 25 0 33 5 38 24 13 53 -38 85
-88 55z"/>
<path d="M7187 13575 c-13 -12 -14 -21 -7 -35 33 -61 130 -67 130 -8 0 39 -94
72 -123 43z"/>
<path d="M9840 13558 c-24 -18 -52 -40 -63 -48 -11 -8 -51 -17 -89 -21 -78 -7
-93 -17 -84 -53 15 -62 69 -73 137 -26 74 50 128 38 158 -38 18 -47 106 -125
159 -143 29 -9 37 -9 51 5 15 16 14 21 -15 73 -24 47 -40 62 -83 84 -30 16
-64 38 -77 50 l-24 22 25 33 c31 41 31 48 -1 73 -35 28 -43 27 -94 -11z"/>
<path d="M10869 13574 c-16 -20 -4 -41 41 -71 37 -26 72 -29 89 -10 8 10 3 21
-22 44 -32 31 -68 53 -85 53 -5 0 -15 -7 -23 -16z"/>
<path d="M5653 13568 c-4 -7 -13 -31 -18 -52 -6 -23 -22 -48 -38 -60 l-27 -20
-45 22 c-54 26 -83 28 -113 6 -33 -23 -45 -50 -31 -75 10 -19 16 -21 72 -15
42 5 75 3 102 -7 64 -22 100 -7 120 51 9 26 27 68 40 93 19 35 22 48 13 57
-16 16 -65 15 -75 0z"/>
<path d="M6907 13573 c-15 -2 -35 -16 -44 -30 -16 -24 -16 -26 3 -40 38 -28
118 9 112 51 -3 22 -21 27 -71 19z"/>
<path d="M10662 13544 c-29 -20 -28 -30 7 -65 54 -54 134 -30 101 30 -13 25
-49 51 -70 51 -9 0 -26 -7 -38 -16z"/>
<path d="M5110 13500 c-24 -24 -25 -43 -4 -64 18 -19 30 -20 73 -5 32 11 49
44 37 74 -8 23 -81 20 -106 -5z"/>
<path d="M9167 13513 c-27 -26 14 -73 64 -73 56 0 82 47 40 70 -22 11 -94 14
-104 3z"/>
<path d="M9366 13497 c-14 -10 -17 -21 -13 -40 13 -50 147 -89 155 -45 5 24
-58 87 -93 94 -18 3 -37 0 -49 -9z"/>
<path d="M4343 13493 c-51 -10 -72 -86 -28 -103 14 -5 30 -21 35 -35 12 -31
32 -40 59 -26 18 10 20 20 18 89 l-2 77 -30 1 c-16 1 -40 0 -52 -3z"/>
<path d="M8817 13482 c-20 -22 -22 -55 -4 -70 6 -5 32 -15 56 -22 54 -14 78 2
67 44 -15 60 -84 87 -119 48z"/>
<path d="M10365 13478 c-16 -6 -44 -21 -62 -34 -17 -13 -43 -24 -57 -24 -37 0
-56 -10 -56 -30 0 -35 39 -49 197 -66 50 -6 52 -5 67 24 43 83 -9 158 -89 130z"/>
<path d="M9054 13459 c-19 -21 -18 -21 10 -45 39 -34 90 -30 94 7 6 54 -66 80
-104 38z"/>
<path d="M4553 13439 c-40 -12 -60 -43 -42 -65 22 -27 70 -46 117 -47 37 0 49
5 69 27 28 33 28 37 5 66 -21 26 -96 36 -149 19z"/>
<path d="M5940 13443 c-28 -11 -50 -36 -50 -58 0 -26 17 -35 66 -35 43 0 87
39 82 73 -2 18 -10 22 -43 24 -22 1 -47 -1 -55 -4z"/>
<path d="M10700 13422 c-30 -9 -50 -36 -50 -65 0 -43 78 -120 117 -115 25 3
29 8 37 56 9 50 11 52 42 52 33 0 48 18 38 45 -5 11 -19 15 -53 14 -25 -1 -62
3 -81 8 -19 5 -42 8 -50 5z"/>
<path d="M3385 13397 c-37 -12 -40 -16 -40 -47 0 -32 3 -35 33 -38 43 -4 105
40 100 71 -4 27 -36 31 -93 14z"/>
<path d="M11037 13392 c-37 -41 -7 -137 55 -171 23 -13 28 -13 52 2 41 28 28
106 -28 162 -30 30 -57 32 -79 7z"/>
<path d="M8578 13390 c-10 -6 -18 -19 -18 -30 0 -30 48 -79 91 -92 37 -11 42
-10 65 13 21 22 23 29 15 52 -6 14 -21 33 -35 42 -32 21 -96 29 -118 15z"/>
<path d="M7443 13378 c-13 -6 -23 -17 -23 -24 0 -31 78 -46 99 -20 10 12 8 19
-8 35 -23 23 -35 25 -68 9z"/>
<path d="M6728 13364 c-16 -8 -28 -21 -28 -28 0 -36 72 -56 118 -32 35 18 43
34 30 59 -11 22 -81 23 -120 1z"/>
<path d="M9391 13361 c-25 -25 -19 -47 21 -67 40 -21 76 -11 84 22 13 50 -66
84 -105 45z"/>
<path d="M4975 13356 c-87 -27 -131 -64 -106 -89 25 -25 152 7 191 48 45 48 2
69 -85 41z"/>
<path d="M6312 13360 c-28 -12 -38 -36 -22 -55 17 -20 94 -20 114 1 45 45 -19
83 -92 54z"/>
<path d="M8206 13351 c-15 -17 -15 -19 1 -39 25 -30 66 -38 87 -17 22 22 20
30 -10 54 -33 26 -56 27 -78 2z"/>
<path d="M7962 13348 c-29 -29 0 -88 45 -88 11 0 28 9 39 21 17 19 17 23 3 47
-16 30 -65 42 -87 20z"/>
<path d="M11240 13346 c0 -22 40 -66 61 -66 30 0 34 28 9 56 -25 26 -70 33
-70 10z"/>
<path d="M4324 13284 c-56 -27 -70 -92 -22 -102 43 -8 121 87 88 108 -20 13
-30 12 -66 -6z"/>
<path d="M3535 13256 c-22 -8 -90 -16 -150 -20 -96 -5 -118 -9 -171 -36 -53
-26 -65 -29 -92 -19 -52 18 -107 -30 -100 -88 4 -41 39 -42 102 -3 51 32 51
32 148 26 94 -7 99 -6 135 19 29 19 50 25 95 25 46 0 62 5 88 26 23 20 30 34
28 53 -4 31 -26 36 -83 17z"/>
<path d="M7372 13234 c-31 -21 -27 -43 10 -58 44 -19 88 -3 88 30 0 17 -8 27
-26 34 -35 14 -46 13 -72 -6z"/>
<path d="M6313 13216 c-23 -20 -26 -28 -17 -43 14 -23 39 -28 74 -13 34 14 44
34 30 61 -15 26 -53 24 -87 -5z"/>
<path d="M3993 13211 c-36 -22 -50 -55 -33 -76 16 -19 24 -19 66 1 36 17 65
59 57 82 -7 18 -54 15 -90 -7z"/>
<path d="M11440 13206 c0 -8 12 -28 26 -45 19 -23 34 -31 59 -31 45 0 50 12
17 43 -42 40 -102 59 -102 33z"/>
<path d="M10977 13203 c-23 -22 9 -66 68 -95 52 -26 82 -29 100 -12 15 15 14
19 -8 48 -13 17 -39 39 -58 48 -35 17 -90 23 -102 11z"/>
<path d="M11378 13166 c-14 -8 -42 -19 -61 -25 -23 -8 -38 -21 -45 -39 -25
-64 -24 -71 7 -102 51 -52 91 -36 114 45 11 38 19 51 38 55 30 7 36 35 13 61
-20 23 -30 23 -66 5z"/>
<path d="M4817 13158 c-38 -14 -47 -55 -17 -80 26 -21 52 -23 83 -7 42 22 48
48 17 79 -22 22 -40 24 -83 8z"/>
<path d="M6404 13156 c-15 -12 -17 -18 -8 -33 16 -25 61 -40 82 -27 22 14 28
54 10 65 -20 13 -62 11 -84 -5z"/>
<path d="M5663 13140 c-47 -19 -52 -75 -7 -86 37 -10 74 4 86 32 11 23 9 29
-11 45 -25 21 -35 22 -68 9z"/>
<path d="M8231 13141 c-12 -8 -12 -12 -2 -25 31 -38 92 -25 70 15 -10 20 -44
25 -68 10z"/>
<path d="M9673 13143 c-7 -2 -13 -13 -13 -23 0 -39 81 -56 99 -21 19 34 -39
64 -86 44z"/>
<path d="M10462 13140 c-12 -5 -25 -17 -29 -26 -9 -23 33 -56 66 -52 21 2 27
9 29 37 5 47 -17 60 -66 41z"/>
<path d="M3477 13122 c-22 -24 -21 -39 2 -51 40 -22 117 29 89 57 -18 18 -73
14 -91 -6z"/>
<path d="M10668 13120 c-63 -34 -75 -80 -32 -124 37 -37 69 -33 123 14 25 22
54 47 64 56 11 9 17 25 15 42 -3 26 -6 27 -68 29 -49 2 -74 -2 -102 -17z"/>
<path d="M4097 13120 c-50 -9 -88 -48 -96 -97 -5 -27 -12 -39 -26 -41 -28 -5
-65 -42 -65 -63 0 -10 9 -23 20 -29 33 -18 72 7 83 53 8 33 17 42 68 67 50 26
89 67 89 94 0 14 -39 22 -73 16z"/>
<path d="M8363 13100 c-30 -12 -30 -54 -1 -74 46 -32 118 -12 118 33 0 42 -62
63 -117 41z"/>
<path d="M9302 13093 c-24 -10 -33 -40 -16 -57 19 -20 84 -21 109 -2 44 32
-35 82 -93 59z"/>
<path d="M10166 13089 c-39 -11 -76 -48 -76 -75 0 -26 33 -49 54 -37 32 19
117 101 109 105 -20 12 -60 15 -87 7z"/>
<path d="M2916 13065 c-66 -23 -91 -68 -56 -100 17 -15 24 -16 49 -6 53 22 86
71 69 104 -10 20 -12 20 -62 2z"/>
<path d="M3187 13050 c-41 -12 -57 -29 -57 -59 0 -43 22 -65 55 -57 32 8 85
58 85 80 0 18 -27 46 -43 45 -7 0 -25 -5 -40 -9z"/>
<path d="M8747 13042 c-9 -10 -17 -24 -17 -30 0 -18 51 -52 79 -52 51 0 69 48
29 74 -41 26 -72 29 -91 8z"/>
<path d="M11581 13034 c-47 -33 -1 -103 86 -131 68 -22 103 -9 103 38 0 41
-45 83 -104 98 -57 14 -57 14 -85 -5z"/>
<path d="M6642 13030 c-46 -19 -36 -66 21 -100 44 -27 83 -26 102 4 15 22 15
27 1 49 -26 39 -85 62 -124 47z"/>
<path d="M10983 13033 c-22 -8 -14 -59 16 -100 55 -76 134 -120 160 -90 19 24
-8 74 -77 140 -58 55 -72 62 -99 50z"/>
<path d="M10373 13023 c-19 -7 -15 -58 6 -77 41 -37 132 -43 145 -9 19 49 -90
111 -151 86z"/>
<path d="M4198 13005 c-37 -20 -53 -52 -37 -71 30 -36 116 3 121 56 3 21 -1
25 -27 27 -16 2 -42 -4 -57 -12z"/>
<path d="M9910 12987 c-51 -26 -29 -81 31 -79 33 1 69 26 69 48 0 16 -39 44
-60 44 -8 0 -26 -6 -40 -13z"/>
<path d="M2696 12930 c-85 -64 -105 -86 -106 -113 0 -14 8 -17 43 -15 23 1 70
-2 103 -6 77 -10 84 -1 49 63 -26 47 -26 49 -10 81 28 55 4 51 -79 -10z"/>
<path d="M5276 12974 c-19 -18 -21 -55 -4 -72 17 -17 84 -15 102 4 36 35 7 84
-49 84 -18 0 -41 -7 -49 -16z"/>
<path d="M3339 12949 c-76 -8 -99 -18 -128 -55 -31 -40 -27 -70 10 -83 103
-36 219 19 219 104 0 40 -11 43 -101 34z"/>
<path d="M9641 12926 c-9 -10 -8 -16 3 -25 22 -18 51 -9 54 17 3 18 -1 22 -21
22 -14 0 -30 -6 -36 -14z"/>
<path d="M11480 12920 c-11 -11 -20 -23 -20 -28 0 -22 36 -52 79 -67 l49 -16
4 -74 c4 -82 22 -112 81 -136 34 -13 87 -57 87 -72 0 -29 46 -110 67 -118 26
-10 59 3 79 29 9 12 16 10 48 -11 20 -14 54 -31 74 -38 20 -6 58 -31 84 -55
41 -38 53 -44 91 -44 80 0 102 62 34 96 -17 9 -70 30 -116 45 -54 19 -93 38
-106 54 -31 38 -69 42 -100 11 -14 -14 -28 -26 -30 -26 -1 0 -16 20 -33 44
-26 40 -28 50 -22 91 4 26 13 53 21 60 8 8 42 18 77 24 34 5 67 13 72 16 26
16 -2 105 -40 125 -20 11 -71 -7 -85 -30 -3 -5 -26 -10 -49 -10 -47 0 -56 -11
-56 -71 0 -19 -6 -28 -22 -33 -29 -7 -48 11 -68 66 -14 38 -34 57 -75 71 -6 2
-4 10 4 20 22 27 5 66 -34 83 -47 19 -71 18 -95 -6z"/>
<path d="M2940 12917 c-30 -10 -38 -21 -59 -73 -15 -40 -33 -67 -50 -77 -40
-24 -81 -64 -81 -81 0 -22 29 -46 56 -46 17 0 40 17 75 55 28 30 59 57 69 60
10 3 44 -3 75 -14 51 -18 61 -19 90 -6 34 13 55 41 55 69 0 18 -49 46 -79 46
-11 0 -26 7 -33 16 -55 68 -61 71 -118 51z"/>
<path d="M11252 12904 c-29 -20 -28 -45 3 -83 31 -36 137 -91 176 -91 27 0 59
22 59 40 0 18 -66 84 -117 117 -57 36 -87 41 -121 17z"/>
<path d="M9416 12884 c-51 -50 27 -120 95 -84 25 14 25 61 1 83 -23 21 -76 22
-96 1z"/>
<path d="M10833 12873 c-21 -8 -15 -38 11 -62 30 -29 103 -40 112 -18 7 19
-20 73 -41 81 -19 7 -64 7 -82 -1z"/>
<path d="M4695 12856 c-46 -33 -5 -150 66 -187 l39 -20 25 25 c33 33 31 59 -6
91 -18 14 -37 43 -44 63 -15 42 -46 53 -80 28z"/>
<path d="M8313 12853 c-20 -8 -15 -40 9 -57 49 -34 101 -8 80 39 -9 20 -19 25
-44 24 -18 0 -39 -3 -45 -6z"/>
<path d="M3896 12829 c-30 -24 -33 -44 -8 -58 21 -11 81 7 95 30 28 46 -37 67
-87 28z"/>
<path d="M4350 12793 c-53 -20 -65 -69 -25 -108 66 -67 153 14 94 89 -20 25
-38 30 -69 19z"/>
<path d="M5617 12782 c-24 -26 -21 -38 13 -62 33 -24 38 -41 15 -60 -19 -16
-19 -46 0 -54 8 -3 26 -1 40 4 21 8 25 16 25 52 0 26 8 55 20 73 18 27 18 31
3 47 -22 25 -94 24 -116 0z"/>
<path d="M3590 12770 c-38 -38 -17 -82 37 -82 49 0 97 81 57 96 -31 12 -74 6
-94 -14z"/>
<path d="M2512 12769 c-75 -28 -106 -166 -47 -205 54 -36 195 35 195 97 0 10
-18 26 -45 39 -24 12 -47 30 -50 40 -9 29 -27 39 -53 29z"/>
<path d="M3482 12770 c-31 -13 -39 -40 -17 -56 10 -8 23 -14 28 -14 15 0 69
59 62 70 -8 12 -42 12 -73 0z"/>
<path d="M9590 12766 c-19 -24 -8 -59 23 -74 25 -12 31 -12 48 4 24 22 24 46
1 67 -23 21 -56 22 -72 3z"/>
<path d="M10535 12754 c-22 -23 -12 -58 32 -112 58 -71 116 -89 174 -55 24 14
34 15 62 5 66 -24 107 -7 71 29 -15 14 -40 20 -99 25 -111 8 -131 18 -161 75
-26 53 -50 62 -79 33z"/>
<path d="M4585 12744 c-5 -1 -23 -5 -38 -8 -39 -9 -56 -49 -32 -76 37 -40 145
-11 145 40 0 26 -43 52 -75 44z"/>
<path d="M12057 12744 c-12 -12 8 -41 61 -90 63 -57 64 -75 7 -98 -31 -13 -35
-19 -30 -38 15 -52 94 -94 132 -70 17 10 43 76 43 106 0 37 -193 209 -213 190z"/>
<path d="M3744 12708 c-18 -8 -44 -46 -44 -63 0 -3 11 -12 24 -21 23 -14 28
-14 61 2 39 18 62 53 52 78 -7 18 -60 21 -93 4z"/>
<path d="M2994 12661 c-22 -10 -50 -31 -62 -46 -54 -68 -5 -90 108 -51 101 36
133 69 98 104 -18 18 -97 14 -144 -7z"/>
<path d="M11123 12654 c-8 -20 5 -42 40 -68 22 -16 31 -18 52 -8 32 15 32 36
0 67 -28 29 -82 34 -92 9z"/>
<path d="M3353 12575 c-52 -22 -60 -97 -12 -103 35 -4 81 49 77 87 -4 31 -22
35 -65 16z"/>
<path d="M5804 12576 c-62 -27 -45 -86 24 -86 69 0 104 47 64 83 -22 20 -46
21 -88 3z"/>
<path d="M8668 12579 c-10 -5 -18 -19 -18 -29 0 -46 102 -69 108 -24 5 36 -56
73 -90 53z"/>
<path d="M11308 12569 c-57 -33 14 -92 169 -139 72 -22 124 -24 130 -5 5 17
-86 114 -128 135 -42 22 -141 27 -171 9z"/>
<path d="M2334 12538 c-22 -11 -43 -24 -48 -29 -6 -5 -25 -9 -43 -9 -47 0 -87
-41 -78 -78 3 -15 15 -36 25 -47 18 -17 23 -18 57 -6 87 32 153 98 153 154 0
34 -21 39 -66 15z"/>
<path d="M2693 12530 c-12 -5 -31 -27 -43 -50 -14 -27 -39 -52 -78 -77 -108
-70 -136 -109 -93 -133 34 -18 60 -11 153 37 96 49 118 76 118 143 0 25 -24
92 -33 89 -1 0 -12 -4 -24 -9z"/>
<path d="M10102 12518 c-19 -19 -14 -45 14 -67 33 -26 66 -27 87 -3 22 24 21
45 -1 65 -22 20 -83 22 -100 5z"/>
<path d="M3685 12486 c-36 -16 -85 -70 -85 -95 0 -23 20 -41 46 -41 52 0 146
103 118 129 -18 17 -49 20 -79 7z"/>
<path d="M3082 12474 c-33 -13 -37 -21 -26 -48 8 -22 40 -20 64 4 40 40 17 67
-38 44z"/>
<path d="M12390 12435 c0 -20 32 -75 56 -96 16 -13 46 -47 67 -74 34 -44 38
-55 32 -85 -4 -19 -9 -47 -12 -62 -8 -42 3 -71 48 -128 30 -38 46 -70 56 -116
10 -46 22 -70 40 -84 29 -23 63 -26 81 -8 20 20 14 37 -33 87 -41 44 -45 52
-45 100 0 36 -10 75 -31 124 -18 42 -29 83 -26 99 3 23 -11 42 -93 126 -85 88
-140 134 -140 117z"/>
<path d="M10442 12378 c-33 -33 17 -91 72 -86 27 3 31 8 34 35 2 23 -3 35 -20
47 -27 19 -69 21 -86 4z"/>
<path d="M2290 12361 c-79 -25 -122 -59 -173 -141 -32 -50 -102 -82 -193 -88
-69 -4 -76 -7 -104 -39 -17 -18 -30 -40 -30 -48 0 -19 31 -35 68 -35 16 0 43
-5 60 -11 27 -9 38 -7 83 17 28 16 58 40 67 54 49 80 66 100 87 100 12 0 32
11 45 25 13 13 47 31 76 40 56 16 94 52 94 89 0 41 -26 53 -80 37z"/>
<path d="M2765 12353 c-11 -3 -30 -14 -42 -26 -52 -48 -6 -104 58 -71 31 15
65 76 54 94 -6 10 -35 11 -70 3z"/>
<path d="M3977 12340 c-50 -40 -28 -90 40 -90 47 0 65 20 61 65 -3 38 -5 40
-39 43 -24 2 -43 -4 -62 -18z"/>
<path d="M11978 12339 c-35 -20 -17 -59 40 -88 29 -15 62 -5 62 19 0 23 -38
67 -65 74 -11 3 -28 1 -37 -5z"/>
<path d="M11769 12319 c-23 -44 38 -112 80 -89 25 13 27 40 6 80 -19 38 -68
42 -86 9z"/>
<path d="M12392 12328 c-18 -18 -15 -33 14 -67 27 -33 55 -40 72 -18 14 17 -1
50 -34 76 -31 24 -36 25 -52 9z"/>
<path d="M9157 12312 c-21 -23 -21 -36 -1 -56 31 -31 114 -14 114 24 0 43 -82
66 -113 32z"/>
<path d="M11598 12309 c-27 -15 -22 -43 11 -62 39 -23 68 -21 81 4 25 46 -41
88 -92 58z"/>
<path d="M11349 12255 c-22 -23 -28 -24 -57 -14 -42 14 -62 6 -62 -26 0 -52
58 -105 115 -105 22 0 25 4 25 39 0 30 4 40 20 44 20 5 36 47 26 72 -8 23 -38
18 -67 -10z"/>
<path d="M12217 12202 c-34 -37 -22 -73 43 -133 59 -54 60 -56 60 -108 0 -71
12 -91 56 -91 28 0 36 5 45 27 11 30 7 54 -21 128 -11 28 -22 71 -25 97 -5 36
-13 53 -36 73 -37 31 -98 34 -122 7z"/>
<path d="M2980 12190 c-23 -23 -26 -72 -6 -89 17 -14 63 20 77 57 18 48 -32
71 -71 32z"/>
<path d="M11980 12180 c-27 -27 -23 -57 12 -83 28 -21 58 -19 92 6 18 13 19
17 5 53 -13 34 -19 39 -51 42 -27 2 -43 -3 -58 -18z"/>
<path d="M10161 12149 c-24 -26 -45 -103 -42 -152 1 -14 8 -18 28 -15 23 2 29
10 39 43 8 31 16 41 35 43 13 2 30 9 37 14 15 13 16 60 0 76 -19 19 -75 14
-97 -9z"/>
<path d="M3376 12139 c-30 -24 -35 -64 -8 -78 41 -22 130 51 102 84 -18 21
-63 19 -94 -6z"/>
<path d="M4792 12150 c-33 -14 -39 -40 -14 -61 27 -21 56 -15 83 19 19 25 19
27 3 39 -20 15 -39 16 -72 3z"/>
<path d="M11597 12103 c-28 -28 21 -88 66 -81 17 2 22 9 20 31 -1 16 -7 35
-14 43 -12 14 -60 19 -72 7z"/>
<path d="M2370 12078 c-14 -5 -57 -11 -97 -12 -79 -2 -114 -19 -143 -69 -23
-41 -5 -61 60 -65 64 -4 125 16 197 64 46 30 54 40 51 62 -3 30 -28 38 -68 20z"/>
<path d="M3687 12072 c-39 -43 -7 -103 45 -83 34 13 50 36 46 68 -3 24 -8 28
-39 31 -24 2 -40 -3 -52 -16z"/>
<path d="M2581 12043 c-42 -22 -57 -56 -35 -78 20 -20 50 -12 87 23 54 51 17
90 -52 55z"/>
<path d="M2981 12041 c-27 -27 -26 -46 0 -72 38 -38 114 4 107 60 -3 23 -8 26
-45 29 -32 2 -47 -2 -62 -17z"/>
<path d="M11103 12047 c-35 -15 -30 -53 10 -77 51 -31 97 -22 97 20 0 37 -70
74 -107 57z"/>
<path d="M3542 12024 c-37 -26 -24 -84 20 -84 10 0 25 11 34 25 14 21 15 31 6
50 -13 29 -29 31 -60 9z"/>
<path d="M2742 12023 c-43 -8 -70 -106 -37 -133 20 -17 73 14 98 59 16 26 17
37 9 57 -11 23 -22 26 -70 17z"/>
<path d="M10959 11971 c-25 -20 -20 -50 14 -81 30 -28 65 -26 79 5 10 21 8 30
-8 52 -28 37 -58 46 -85 24z"/>
<path d="M12810 11967 c0 -13 13 -41 29 -63 16 -21 32 -59 36 -84 4 -25 13
-59 20 -77 13 -32 30 -40 117 -58 16 -3 35 -19 47 -39 20 -31 48 -52 58 -43 2
2 -1 17 -7 32 -15 39 -68 98 -102 112 -20 9 -37 30 -57 73 -31 65 -91 144
-122 160 -16 9 -19 7 -19 -13z"/>
<path d="M11958 11930 c-12 -16 -27 -30 -33 -30 -7 0 -19 -8 -28 -18 -15 -16
-15 -20 -1 -40 12 -17 25 -22 59 -22 103 0 158 61 105 118 -31 32 -74 29 -102
-8z"/>
<path d="M12520 11915 c-10 -12 -9 -20 4 -41 10 -14 23 -23 29 -21 20 6 19 42
-1 60 -17 16 -21 16 -32 2z"/>
<path d="M12170 11905 c-28 -34 49 -95 118 -95 61 0 62 58 2 93 -35 21 -103
22 -120 2z"/>
<path d="M7060 11903 c-19 -1 -84 -8 -145 -13 -403 -39 -884 -174 -1224 -344
-302 -152 -514 -300 -729 -510 -176 -172 -301 -331 -417 -534 -281 -491 -367
-1168 -219 -1736 77 -298 219 -578 429 -849 247 -317 661 -650 1160 -931 305
-172 544 -285 965 -456 666 -270 883 -392 1120 -630 171 -170 236 -287 263
-471 22 -157 -22 -388 -100 -517 -98 -162 -199 -254 -368 -337 -486 -239
-1051 -118 -1477 317 -145 148 -206 238 -343 509 -131 257 -140 269 -203 269
-15 0 -39 -6 -53 -14 -27 -14 -1280 -1083 -1311 -1118 -28 -32 -21 -81 26
-202 187 -479 524 -880 990 -1180 536 -345 1224 -536 1926 -536 581 1 1025 95
1465 310 172 84 277 150 422 267 529 423 877 1089 982 1881 36 269 45 459 33
652 -27 393 -120 678 -335 1020 -396 630 -1234 1215 -2472 1725 -622 256 -860
389 -1066 594 -118 119 -167 199 -195 317 -24 104 -7 230 46 335 36 70 163
187 255 236 101 52 234 97 350 119 133 25 398 30 511 10 267 -46 499 -171 736
-396 136 -129 227 -235 385 -447 128 -173 149 -191 196 -176 40 12 1220 833
1264 878 55 58 53 84 -17 226 -371 741 -862 1249 -1463 1515 -346 153 -719
225 -1147 222 -113 -1 -221 -3 -240 -5z m392 -827 c444 -56 812 -235 1147
-561 129 -125 246 -255 294 -325 51 -74 -25 -162 -103 -120 -11 6 -54 54 -96
108 -434 547 -964 784 -1658 741 -298 -18 -530 -70 -799 -178 -495 -199 -824
-578 -917 -1056 -30 -160 -29 -405 5 -571 69 -339 234 -585 555 -828 251 -189
629 -384 1365 -703 415 -180 809 -390 1120 -596 206 -136 317 -227 475 -386
164 -165 249 -281 340 -466 128 -260 164 -425 164 -745 0 -279 -29 -465 -111
-700 -79 -224 -209 -445 -368 -623 -179 -201 -420 -373 -657 -470 -168 -69
-332 -114 -508 -138 -150 -21 -476 -17 -642 9 -577 89 -1101 343 -1433 694
-140 148 -265 332 -265 390 0 58 77 99 120 65 9 -7 38 -46 65 -87 181 -274
463 -511 810 -680 301 -147 578 -219 929 -241 514 -32 1003 128 1334 436 191
178 323 383 425 661 95 257 131 479 124 754 -4 166 -7 197 -35 301 -38 144
-91 266 -166 387 -184 296 -531 596 -1006 872 -137 79 -808 413 -1125 560
-813 377 -1190 629 -1437 964 -116 158 -211 382 -243 576 -65 393 5 798 193
1115 217 367 646 654 1157 775 306 73 681 99 947 66z"/>
<path d="M10179 11886 c-13 -6 -25 -19 -27 -28 -7 -34 83 -67 110 -40 6 6 8
22 4 35 -8 32 -54 50 -87 33z"/>
<path d="M1639 11866 c-46 -23 -62 -91 -34 -146 28 -55 85 -47 111 15 17 42
18 72 1 104 -16 31 -48 42 -78 27z"/>
<path d="M1821 11809 c-33 -31 -26 -83 11 -87 60 -7 119 56 88 93 -18 22 -72
19 -99 -6z"/>
<path d="M10994 11816 c-3 -8 -4 -25 -2 -38 2 -17 9 -23 28 -23 22 0 25 4 25
35 0 29 -4 36 -23 38 -13 2 -24 -3 -28 -12z"/>
<path d="M2222 11797 c-39 -12 -59 -39 -64 -82 -3 -27 0 -30 30 -33 44 -4 105
53 100 95 -3 32 -18 36 -66 20z"/>
<path d="M1968 11743 c-50 -53 -67 -152 -29 -173 52 -28 95 8 113 93 21 98
-25 142 -84 80z"/>
<path d="M11364 11746 c-10 -25 0 -48 29 -70 21 -16 32 -18 45 -10 24 15 27
52 6 75 -20 22 -72 25 -80 5z"/>
<path d="M12495 11727 c-22 -19 -25 -26 -17 -47 15 -38 46 -61 91 -67 93 -13
113 86 26 123 -47 19 -70 18 -100 -9z"/>
<path d="M2311 11696 c-29 -31 -38 -87 -17 -105 22 -18 54 -5 77 32 44 73 -4
132 -60 73z"/>
<path d="M2739 11681 c-37 -37 -38 -68 -3 -77 56 -14 119 43 100 91 -10 26
-64 18 -97 -14z"/>
<path d="M12180 11674 c0 -32 73 -109 113 -119 63 -16 75 23 26 80 -37 42 -77
65 -114 65 -20 0 -25 -5 -25 -26z"/>
<path d="M12362 11668 c-15 -15 3 -38 29 -38 24 0 33 18 19 35 -15 18 -32 19
-48 3z"/>
<path d="M12842 11664 c-17 -12 -20 -19 -12 -34 14 -26 73 -44 100 -30 22 12
27 49 8 68 -17 17 -69 15 -96 -4z"/>
<path d="M11940 11625 c-17 -21 -8 -47 22 -65 21 -11 32 -12 45 -4 22 14 29
50 13 70 -16 18 -64 18 -80 -1z"/>
<path d="M12762 11628 c-18 -18 -15 -36 9 -49 26 -14 42 0 37 32 -3 27 -27 36
-46 17z"/>
<path d="M1414 11598 c-27 -33 -66 -109 -59 -116 10 -11 82 37 102 67 48 72
12 113 -43 49z"/>
<path d="M1563 11607 c-41 -15 -68 -42 -87 -88 -13 -32 -13 -38 0 -57 33 -47
93 -18 130 62 28 60 30 82 8 90 -9 3 -16 6 -17 5 -1 0 -17 -6 -34 -12z"/>
<path d="M2405 11602 c-88 -54 -57 -165 32 -118 49 25 80 91 60 124 -12 18
-57 15 -92 -6z"/>
<path d="M11028 11589 c-30 -17 -24 -82 12 -122 38 -44 66 -51 91 -26 23 23
24 50 3 92 -33 65 -64 81 -106 56z"/>
<path d="M11818 11545 c-14 -31 10 -72 49 -81 55 -14 82 39 42 82 -31 33 -76
32 -91 -1z"/>
<path d="M3442 11534 c-24 -10 -32 -19 -32 -39 0 -29 19 -40 55 -31 28 7 48
37 39 60 -8 22 -27 25 -62 10z"/>
<path d="M2845 11476 c-29 -29 -42 -73 -28 -95 6 -9 29 -18 53 -21 38 -4 45
-9 51 -33 16 -59 60 -76 99 -37 30 30 26 68 -7 81 -52 21 -57 26 -65 64 -5 21
-13 44 -19 52 -18 21 -58 15 -84 -11z"/>
<path d="M12786 11484 c-21 -20 -20 -30 5 -65 57 -81 209 -95 209 -20 0 65
-168 132 -214 85z"/>
<path d="M13085 11457 c-18 -32 -25 -58 -25 -98 0 -52 2 -57 50 -104 43 -43
50 -55 50 -90 0 -24 14 -69 34 -113 26 -57 32 -82 29 -115 -6 -49 22 -98 76
-134 40 -27 68 -29 93 -6 15 13 23 14 44 5 13 -7 45 -12 70 -12 42 0 46 -2 72
-45 19 -33 33 -45 47 -43 49 7 3 147 -72 220 -28 27 -42 33 -78 33 -36 0 -50
-6 -77 -31 -28 -27 -37 -30 -57 -23 -42 17 -52 38 -46 104 7 77 -12 144 -58
194 -33 37 -34 40 -26 91 16 104 -23 210 -77 210 -17 0 -30 -12 -49 -43z"/>
<path d="M1884 11416 c-42 -42 -42 -54 -4 -91 39 -37 39 -70 1 -90 -75 -38
-96 -125 -31 -125 14 0 50 42 71 82 11 21 36 47 59 60 21 13 41 32 44 43 11
41 5 91 -14 123 -28 46 -79 45 -126 -2z"/>
<path d="M12677 11433 c-27 -26 12 -120 59 -142 69 -31 74 81 6 137 -17 13
-54 16 -65 5z"/>
<path d="M2396 11380 c-32 -38 -25 -60 20 -60 32 0 74 28 74 49 0 50 -55 56
-94 11z"/>
<path d="M12228 11389 c-38 -22 -13 -65 48 -83 24 -7 54 15 54 39 0 29 -74 61
-102 44z"/>
<path d="M1465 11371 c-60 -28 -96 -106 -63 -139 26 -26 76 -14 122 31 95 90
56 161 -59 108z"/>
<path d="M12476 11318 c-9 -12 -16 -34 -16 -48 0 -39 -20 -59 -65 -62 -37 -3
-40 -5 -43 -35 -3 -27 2 -34 27 -47 36 -19 77 -21 88 -4 4 7 13 31 18 53 10
36 14 40 45 43 39 4 50 15 50 54 0 29 -40 68 -71 68 -10 0 -25 -10 -33 -22z"/>
<path d="M13306 11325 c-7 -20 2 -45 27 -72 47 -52 64 -12 22 50 -28 40 -40
45 -49 22z"/>
<path d="M1677 11299 c-30 -12 -43 -44 -33 -84 15 -59 131 0 124 62 -2 23 -8
28 -33 30 -16 1 -42 -3 -58 -8z"/>
<path d="M2295 11303 c-26 -6 -62 -40 -68 -63 -6 -24 19 -60 43 -60 26 0 80
57 80 84 0 21 -17 47 -29 45 -4 -1 -15 -3 -26 -6z"/>
<path d="M1202 11277 c-30 -31 -28 -64 3 -79 19 -8 31 -8 51 0 22 11 25 17 22
55 -3 37 -6 42 -28 45 -17 2 -33 -5 -48 -21z"/>
<path d="M11851 11256 c-17 -20 -4 -56 20 -56 24 0 36 27 22 48 -14 22 -28 25
-42 8z"/>
<path d="M12960 11225 c-27 -32 -5 -99 43 -129 42 -27 67 67 32 120 -18 27
-56 32 -75 9z"/>
<path d="M1455 11136 c-26 -18 -82 -130 -91 -180 l-7 -39 34 6 c46 9 104 75
125 143 14 43 15 56 4 68 -16 20 -39 20 -65 2z"/>
<path d="M12676 11124 c-9 -8 -16 -21 -16 -27 0 -25 41 -77 65 -83 59 -15 76
56 24 100 -35 30 -51 32 -73 10z"/>
<path d="M1098 11113 c-9 -10 -31 -45 -49 -78 -19 -33 -48 -84 -66 -114 -36
-60 -41 -88 -17 -98 10 -4 33 11 67 45 29 27 70 59 92 70 58 29 83 57 91 99
10 55 -11 87 -62 91 -29 2 -44 -2 -56 -15z"/>
<path d="M13465 11081 c-9 -31 25 -95 53 -99 12 -2 22 2 22 8 0 21 -28 75 -48
93 -20 18 -20 18 -27 -2z"/>
<path d="M11879 11071 c-21 -16 -22 -22 -11 -45 6 -14 24 -32 38 -38 22 -10
28 -10 39 5 15 20 9 54 -13 80 -19 22 -24 21 -53 -2z"/>
<path d="M1595 11051 c-11 -5 -33 -23 -49 -39 -32 -34 -37 -75 -13 -100 21
-20 41 -4 57 43 7 21 24 41 46 54 20 12 34 27 32 34 -5 15 -46 19 -73 8z"/>
<path d="M1716 11017 c-13 -9 -17 -23 -14 -52 3 -35 6 -40 28 -40 33 0 54 42
40 79 -11 29 -27 33 -54 13z"/>
<path d="M12906 11014 c-36 -36 -2 -169 58 -229 30 -30 52 -32 66 -5 12 23
-18 167 -45 220 -18 34 -53 40 -79 14z"/>
<path d="M1219 10971 c-34 -35 -37 -64 -9 -109 19 -31 19 -36 6 -82 -19 -63
-8 -80 55 -82 76 -1 129 38 129 96 0 41 -11 57 -52 73 -39 15 -39 16 -32 59
11 76 -41 100 -97 45z"/>
<path d="M2382 10864 c-34 -24 -30 -68 8 -84 24 -10 33 -10 46 0 25 21 36 50
30 76 -8 29 -49 33 -84 8z"/>
<path d="M1766 10854 c-34 -34 -27 -104 10 -104 46 0 107 78 83 106 -15 19
-74 18 -93 -2z"/>
<path d="M12527 10864 c-10 -11 -8 -53 3 -75 14 -25 47 -25 55 1 12 38 -34 97
-58 74z"/>
<path d="M12662 10838 c-28 -28 5 -80 60 -93 52 -13 63 71 12 94 -32 14 -57
14 -72 -1z"/>
<path d="M1905 10790 c-15 -16 -17 -26 -9 -48 20 -57 94 -30 94 35 0 31 -2 33
-33 33 -21 0 -41 -8 -52 -20z"/>
<path d="M893 10778 c-24 -32 -75 -150 -67 -158 17 -15 51 8 69 46 33 69 31
155 -2 112z"/>
<path d="M1034 10750 c-23 -9 -66 -62 -78 -94 -9 -27 2 -56 23 -56 44 0 101
73 101 130 0 31 -9 35 -46 20z"/>
<path d="M2023 10715 c-60 -42 -43 -155 24 -155 52 0 83 110 43 150 -24 24
-38 25 -67 5z"/>
<path d="M1508 10708 c-22 -8 -31 -21 -44 -64 -20 -68 -16 -98 13 -102 34 -5
63 16 84 61 21 48 24 88 7 105 -14 14 -23 14 -60 0z"/>
<path d="M12792 10698 c-20 -20 -14 -45 19 -72 52 -44 99 -32 99 25 0 46 -85
80 -118 47z"/>
<path d="M13667 10692 c-47 -52 9 -145 76 -128 24 6 25 8 15 43 -13 49 -46
103 -62 103 -7 0 -20 -8 -29 -18z"/>
<path d="M13508 10689 c-38 -22 -44 -117 -11 -181 17 -35 58 -47 81 -24 26 25
24 166 -2 195 -21 23 -41 26 -68 10z"/>
<path d="M11688 10679 c-25 -14 -23 -56 2 -69 12 -6 33 -10 48 -8 21 2 28 9
30 29 5 46 -39 72 -80 48z"/>
<path d="M12422 10678 c-18 -18 -15 -42 9 -72 26 -32 56 -34 70 -2 24 51 -41
112 -79 74z"/>
<path d="M1130 10667 c-32 -16 -37 -52 -14 -95 16 -29 16 -38 5 -75 -31 -104
-35 -136 -23 -194 14 -66 14 -67 41 -58 25 7 77 112 87 173 5 32 1 54 -15 91
-12 28 -21 71 -21 98 0 43 -12 73 -29 73 -4 0 -17 -6 -31 -13z"/>
<path d="M13253 10634 c-3 -9 4 -36 16 -60 12 -26 21 -64 21 -90 0 -25 7 -58
15 -72 8 -15 24 -51 36 -79 17 -43 26 -53 45 -53 31 0 58 41 49 72 -4 13 -20
41 -36 62 -31 43 -35 66 -18 114 8 24 7 37 -5 61 -27 51 -109 81 -123 45z"/>
<path d="M11940 10595 c-16 -20 -4 -51 30 -75 31 -22 76 -27 83 -7 6 15 -20
79 -36 89 -20 13 -64 9 -77 -7z"/>
<path d="M13144 10559 c-17 -19 -17 -23 -3 -47 21 -39 62 -60 83 -43 22 18 20
53 -5 85 -25 31 -49 33 -75 5z"/>
<path d="M753 10508 c-21 -27 -74 -154 -76 -183 -2 -29 0 -30 35 -28 21 1 55
11 77 23 22 11 51 20 65 20 21 0 27 -7 36 -40 6 -22 20 -45 31 -51 53 -28 125
90 75 123 -5 4 -31 4 -56 1 -43 -5 -48 -3 -53 18 -4 13 -7 36 -7 51 0 52 -98
103 -127 66z"/>
<path d="M13632 10488 c-5 -7 -13 -23 -16 -34 -4 -12 -20 -28 -37 -34 -17 -7
-35 -24 -40 -37 -15 -40 -10 -106 10 -143 55 -100 55 -98 43 -124 -8 -18 -24
-28 -54 -36 -61 -15 -72 -23 -78 -56 -6 -35 -35 -42 -80 -19 -36 19 -50 13
-50 -20 0 -32 72 -120 109 -133 27 -10 33 -8 46 11 8 12 15 32 15 44 0 16 6
23 19 23 10 0 31 16 45 35 17 22 40 38 66 45 38 10 39 12 46 66 4 38 1 76 -10
122 -9 37 -16 77 -16 90 0 36 27 80 60 97 38 20 41 61 7 93 -26 24 -69 29 -85
10z"/>
<path d="M1391 10456 c-23 -28 -24 -81 -3 -130 23 -52 42 -64 77 -48 44 20 43
133 -1 177 -19 19 -58 20 -73 1z"/>
<path d="M12903 10445 c-37 -16 -42 -39 -18 -85 27 -53 91 -68 119 -28 30 42
19 91 -25 113 -34 18 -35 18 -76 0z"/>
<path d="M13776 10373 c-32 -32 -40 -60 -33 -119 6 -56 45 -109 94 -125 35
-11 38 -10 61 17 22 25 24 34 18 82 -4 30 -16 76 -28 104 -31 73 -67 86 -112
41z"/>
<path d="M1746 10345 c-47 -50 -36 -115 17 -101 32 8 60 56 55 94 -4 38 -40
41 -72 7z"/>
<path d="M13202 10353 c-13 -24 1 -58 32 -79 34 -21 56 -12 56 23 0 59 -65
100 -88 56z"/>
<path d="M12627 10262 c-21 -23 -21 -41 -1 -70 31 -44 84 -19 84 40 0 47 -51
65 -83 30z"/>
<path d="M2110 10223 c-42 -17 -53 -80 -20 -113 24 -24 34 -25 55 -3 35 34 44
83 19 107 -16 17 -28 19 -54 9z"/>
<path d="M1016 10184 c-35 -36 -33 -66 8 -101 18 -17 36 -42 40 -56 14 -58
106 -12 106 53 0 23 -12 43 -48 80 -27 28 -56 50 -64 50 -8 0 -27 -12 -42 -26z"/>
<path d="M680 10163 c-38 -20 -56 -49 -65 -105 -5 -35 -9 -39 -51 -49 -49 -13
-64 -31 -66 -84 -3 -72 51 -75 92 -5 19 32 35 47 59 54 62 18 136 118 129 174
-2 22 -9 28 -33 30 -16 1 -46 -6 -65 -15z"/>
<path d="M13130 10160 c-8 -15 -7 -27 4 -49 31 -58 105 -93 120 -55 14 38 -51
124 -95 124 -10 0 -23 -9 -29 -20z"/>
<path d="M12392 10148 c-30 -30 0 -108 42 -108 29 0 46 18 46 50 0 50 -58 88
-88 58z"/>
<path d="M12783 10098 c-36 -17 -29 -54 15 -77 48 -26 85 35 44 72 -21 19 -28
20 -59 5z"/>
<path d="M1370 10070 c-36 -36 -18 -90 30 -90 48 0 81 50 60 90 -14 26 -63 27
-90 0z"/>
<path d="M13822 10078 c-30 -30 8 -118 51 -118 20 0 47 33 47 57 0 50 -67 92
-98 61z"/>
<path d="M13963 10083 c-18 -7 -16 -46 4 -88 16 -33 16 -39 -1 -105 -15 -57
-16 -75 -7 -99 18 -42 78 -68 107 -47 14 11 16 23 10 78 -12 120 -61 269 -88
267 -7 0 -19 -3 -25 -6z"/>
<path d="M773 10050 c-24 -10 -39 -50 -29 -76 9 -23 56 -13 79 17 15 22 17 30
8 48 -13 23 -24 25 -58 11z"/>
<path d="M986 10019 c-26 -21 -27 -23 -24 -126 l3 -105 -48 -40 c-54 -46 -60
-76 -22 -113 48 -49 126 -26 145 43 13 48 13 318 0 343 -13 24 -21 24 -54 -2z"/>
<path d="M13066 9901 c-11 -12 -15 -27 -11 -40 17 -54 77 -70 97 -26 10 22 8
30 -9 53 -25 34 -54 39 -77 13z"/>
<path d="M12377 9872 c-24 -26 -21 -59 8 -87 27 -28 37 -30 66 -15 25 14 25
60 -2 94 -24 30 -49 33 -72 8z"/>
<path d="M13721 9873 c-45 -38 -44 -118 3 -162 33 -31 63 -20 87 32 23 51 24
95 3 125 -19 27 -63 29 -93 5z"/>
<path d="M13399 9819 c-14 -14 -18 -27 -14 -42 19 -66 88 -103 100 -55 7 27
-9 74 -32 100 -21 23 -28 23 -54 -3z"/>
<path d="M1780 9796 c-15 -20 -9 -56 12 -70 24 -14 58 18 58 56 0 24 -4 28
-29 28 -16 0 -34 -7 -41 -14z"/>
<path d="M1263 9785 c-45 -32 -21 -121 25 -96 23 12 45 61 40 88 -4 24 -37 28
-65 8z"/>
<path d="M1626 9774 c-20 -20 -20 -34 0 -62 22 -32 65 -26 78 10 17 50 -42 89
-78 52z"/>
<path d="M12603 9764 c-9 -24 10 -49 38 -49 27 0 37 28 19 50 -17 20 -49 19
-57 -1z"/>
<path d="M559 9757 c-18 -14 -76 -140 -85 -187 -7 -31 8 -60 31 -60 7 0 22 16
34 35 11 19 31 39 45 45 52 19 89 114 61 156 -17 26 -59 32 -86 11z"/>
<path d="M12736 9694 c-20 -19 -20 -37 -1 -74 16 -32 44 -45 75 -35 16 5 20
15 20 46 0 64 -56 102 -94 63z"/>
<path d="M396 9666 c-20 -43 -21 -96 -2 -96 37 0 62 94 32 119 -11 9 -17 4
-30 -23z"/>
<path d="M700 9650 c-22 -22 -26 -51 -10 -81 15 -27 64 -25 84 3 45 63 -20
132 -74 78z"/>
<path d="M1158 9658 c-50 -17 -45 -70 9 -105 25 -17 26 -16 49 11 27 30 30 54
12 78 -18 22 -39 26 -70 16z"/>
<path d="M13331 9651 c-25 -25 -26 -42 -6 -81 17 -32 45 -39 64 -16 19 23 9
87 -16 103 -19 13 -24 12 -42 -6z"/>
<path d="M13490 9634 c-16 -19 12 -64 40 -64 23 0 25 9 9 44 -15 31 -34 39
-49 20z"/>
<path d="M13602 9598 c-19 -19 -14 -66 9 -89 45 -45 97 6 68 67 -15 32 -55 44
-77 22z"/>
<path d="M13857 9592 c-34 -38 -13 -147 32 -172 31 -16 40 -12 61 23 24 39 26
113 4 145 -19 28 -74 30 -97 4z"/>
<path d="M13208 9576 c-12 -29 2 -102 29 -142 36 -55 80 -8 68 73 -12 79 -72
122 -97 69z"/>
<path d="M14050 9537 c-20 -13 -40 -39 -49 -60 -13 -34 -12 -46 3 -111 15 -66
16 -79 2 -145 -15 -71 -15 -72 9 -118 14 -25 25 -58 25 -73 0 -34 16 -54 62
-75 30 -13 49 -35 85 -96 35 -59 54 -81 73 -85 53 -12 54 -13 31 -38 -44 -47
-62 -158 -42 -263 24 -123 24 -130 -9 -141 -39 -14 -47 -50 -25 -110 19 -49
75 -142 86 -142 4 0 19 30 34 67 21 54 24 71 16 92 -6 14 -10 58 -9 96 1 39
-1 102 -6 141 -8 70 -8 71 18 90 63 44 67 50 73 91 8 57 -3 92 -32 105 -22 10
-23 12 -8 35 20 31 13 113 -17 180 l-21 48 -36 -63 c-33 -58 -37 -62 -55 -50
-11 8 -40 51 -64 97 -33 62 -44 94 -44 127 0 38 -6 51 -41 89 -53 57 -49 77
16 90 64 13 75 20 75 53 -1 34 -68 161 -96 179 -18 12 -25 10 -54 -10z"/>
<path d="M392 9539 c-32 -12 -67 -91 -52 -119 14 -26 41 -25 68 3 21 23 42 68
42 92 0 21 -31 34 -58 24z"/>
<path d="M1235 9520 c-36 -39 18 -106 69 -87 19 8 22 77 4 95 -18 18 -53 14
-73 -8z"/>
<path d="M13062 9528 c-31 -31 4 -108 48 -108 31 0 53 41 40 76 -6 16 -17 32
-23 36 -18 12 -52 9 -65 -4z"/>
<path d="M845 9508 c-29 -17 -43 -39 -50 -80 -8 -47 -26 -62 -65 -54 -16 3
-43 9 -59 12 -19 4 -42 -1 -71 -16 -24 -12 -65 -28 -91 -36 -27 -8 -51 -19
-54 -24 -3 -5 -12 -43 -20 -84 -11 -56 -24 -88 -51 -126 -33 -47 -36 -54 -29
-93 5 -23 8 -79 6 -124 -2 -73 0 -83 19 -93 15 -8 27 -7 51 6 35 18 33 -4 13
192 l-6 58 40 34 c22 19 58 47 79 61 31 21 43 37 53 74 16 56 33 75 68 75 19
0 32 -9 44 -30 31 -55 78 -28 78 46 0 13 8 31 18 39 9 8 32 28 50 43 37 31 54
91 32 117 -15 18 -28 18 -55 3z"/>
<path d="M14204 9487 c-8 -22 11 -46 26 -31 7 7 5 17 -4 30 -14 18 -15 18 -22
1z"/>
<path d="M13772 9408 c-31 -31 2 -101 46 -96 21 2 28 9 30 31 6 54 -44 97 -76
65z"/>
<path d="M13616 9384 c-27 -26 -5 -84 70 -190 49 -69 84 -87 116 -58 30 28 19
63 -32 99 -33 23 -54 49 -78 98 -33 69 -49 79 -76 51z"/>
<path d="M1901 9344 c-12 -15 -21 -34 -21 -43 0 -26 29 -61 50 -61 43 0 66 82
32 113 -25 23 -37 21 -61 -9z"/>
<path d="M986 9334 c-16 -16 -21 -50 -10 -78 9 -23 61 -21 74 3 32 61 -19 121
-64 75z"/>
<path d="M14223 9308 c-49 -52 -67 -143 -37 -186 11 -16 25 -22 54 -22 70 0
86 53 51 165 -21 67 -37 77 -68 43z"/>
<path d="M271 9236 c-19 -23 -50 -123 -57 -187 l-7 -61 31 16 c81 42 138 176
98 229 -16 20 -49 22 -65 3z"/>
<path d="M13430 9215 c-19 -22 -4 -63 30 -80 37 -19 37 -19 50 5 16 31 -12 90
-43 90 -14 0 -30 -7 -37 -15z"/>
<path d="M13060 9200 c-8 -5 -33 -10 -55 -10 -54 0 -69 -12 -69 -53 0 -57 18
-70 86 -63 117 14 147 41 114 105 -17 32 -46 40 -76 21z"/>
<path d="M937 9163 c-11 -11 -8 -58 5 -71 18 -18 36 -15 48 9 17 32 4 69 -24
69 -12 0 -26 -3 -29 -7z"/>
<path d="M13312 9144 c-46 -32 -18 -138 47 -181 38 -26 99 -31 107 -9 7 18
-10 52 -42 87 -14 14 -34 45 -47 69 -26 51 -34 56 -65 34z"/>
<path d="M1066 9135 c-30 -31 -15 -85 24 -85 27 0 52 35 48 67 -2 22 -9 29
-29 31 -15 2 -34 -4 -43 -13z"/>
<path d="M1830 9110 c-37 -37 -14 -94 28 -71 36 19 43 65 12 81 -15 8 -24 6
-40 -10z"/>
<path d="M12676 9108 c-29 -41 -15 -88 26 -88 33 0 52 72 26 98 -18 18 -35 15
-52 -10z"/>
<path d="M751 9053 c-16 -13 -25 -33 -28 -65 -3 -28 -11 -49 -20 -52 -8 -3
-34 8 -58 25 -26 19 -50 29 -60 26 -22 -9 -39 -51 -31 -81 5 -21 12 -26 39
-26 27 0 36 -7 61 -46 35 -56 56 -54 76 6 21 64 27 70 65 70 46 0 79 41 71 89
-7 42 -22 59 -62 67 -21 4 -36 0 -53 -13z"/>
<path d="M13902 9003 c-18 -25 -21 -26 -36 -10 -22 21 -45 22 -74 1 -37 -26
-27 -76 20 -100 34 -17 53 -8 69 34 8 22 12 20 74 -50 71 -78 90 -123 82 -192
-8 -70 20 -173 59 -216 55 -60 40 -93 -31 -70 -34 11 -39 10 -64 -14 -15 -14
-30 -23 -34 -20 -4 4 -13 1 -22 -6 -21 -17 -20 -103 1 -124 30 -30 53 -17 71
39 9 27 15 31 68 37 33 4 74 13 93 19 32 11 34 13 27 48 -4 20 -25 90 -47 156
-34 97 -42 135 -43 200 -1 44 -5 88 -9 97 -4 9 -28 33 -52 53 -30 25 -47 48
-55 78 -20 70 -62 88 -97 40z"/>
<path d="M950 8950 c-42 -42 -16 -97 40 -85 35 8 65 54 55 85 -9 27 -68 27
-95 0z"/>
<path d="M13522 8898 c-22 -22 -14 -75 15 -98 l28 -21 17 21 c44 55 -12 146
-60 98z"/>
<path d="M12700 8860 c-25 -25 -25 -41 0 -68 36 -38 70 -22 70 33 0 54 -34 71
-70 35z"/>
<path d="M240 8848 c-30 -33 -29 -137 3 -174 20 -23 26 -25 44 -16 26 14 43
61 43 121 0 81 -46 116 -90 69z"/>
<path d="M1752 8844 c-29 -20 -28 -46 4 -84 32 -38 63 -37 82 2 11 23 10 32
-2 56 -14 26 -34 42 -55 42 -3 0 -17 -7 -29 -16z"/>
<path d="M13820 8760 c-14 -11 -31 -20 -38 -20 -8 0 -22 -10 -31 -22 -17 -20
-19 -21 -42 -5 -42 30 -84 16 -102 -34 -9 -25 22 -76 55 -90 25 -10 34 -10 59
5 26 16 31 16 45 2 23 -24 37 -19 62 19 26 42 45 44 69 9 50 -71 57 -76 86
-65 37 14 36 52 -5 121 -33 54 -87 100 -117 100 -9 0 -27 -9 -41 -20z"/>
<path d="M530 8742 c-16 -17 -30 -40 -30 -52 0 -20 62 -124 81 -136 5 -3 9
-32 9 -66 l0 -60 30 4 c27 4 30 2 30 -22 0 -50 46 -68 74 -28 34 49 8 131 -34
108 -11 -6 -23 -17 -27 -25 -5 -8 -8 48 -7 125 2 154 -1 164 -64 176 -26 5
-36 1 -62 -24z"/>
<path d="M1306 8741 c-11 -12 -16 -31 -14 -53 2 -27 8 -34 30 -36 18 -2 31 4
42 20 41 58 -11 121 -58 69z"/>
<path d="M137 8693 c-20 -34 -55 -283 -40 -283 37 0 103 105 103 165 0 48 -19
104 -40 115 -10 5 -21 7 -23 3z"/>
<path d="M13189 8666 c-22 -48 46 -136 72 -94 13 20 10 81 -5 101 -19 25 -54
22 -67 -7z"/>
<path d="M373 8583 c-46 -43 -59 -84 -50 -161 4 -35 12 -52 34 -69 28 -23 28
-23 44 -4 29 35 60 152 57 211 -4 71 -26 77 -85 23z"/>
<path d="M13161 8521 c-21 -14 -16 -62 9 -83 27 -22 34 -22 55 -2 10 11 15 29
13 53 -3 32 -6 36 -33 39 -16 1 -36 -2 -44 -7z"/>
<path d="M971 8503 c-31 -25 -35 -87 -5 -91 28 -4 56 30 57 69 2 40 -19 49
-52 22z"/>
<path d="M1390 8448 c-23 -38 -25 -66 -8 -103 9 -19 16 -24 32 -19 31 9 37 18
43 62 12 89 -28 124 -67 60z"/>
<path d="M811 8443 c-32 -27 -39 -85 -12 -112 26 -26 36 -26 62 0 27 27 23 96
-7 116 -18 12 -24 11 -43 -4z"/>
<path d="M14450 8421 c0 -28 -8 -49 -26 -70 -26 -31 -54 -106 -54 -144 0 -25
72 -97 97 -97 11 0 28 9 38 20 16 18 17 26 7 68 -6 26 -16 96 -23 155 -8 78
-15 107 -25 107 -10 0 -14 -13 -14 -39z"/>
<path d="M13426 8374 c-18 -17 -21 -50 -6 -59 5 -3 31 -8 58 -12 39 -4 51 -10
65 -34 12 -21 24 -29 45 -29 47 0 92 63 72 101 -12 22 -36 24 -92 7 -36 -11
-40 -10 -66 15 -32 31 -54 34 -76 11z"/>
<path d="M13809 8351 c-49 -50 -32 -137 30 -143 49 -6 90 97 57 147 -22 33
-51 32 -87 -4z"/>
<path d="M183 8299 c-17 -5 -41 -21 -52 -35 -21 -26 -28 -79 -13 -100 4 -6 49
-31 101 -57 93 -46 94 -47 127 -31 60 29 106 129 79 171 -17 26 -50 31 -59 8
-9 -24 -37 -17 -65 15 -29 34 -70 44 -118 29z"/>
<path d="M1010 8258 c-34 -56 -25 -128 16 -128 31 0 56 39 58 89 1 71 -41 93
-74 39z"/>
<path d="M14136 8208 c-22 -30 -20 -94 4 -146 24 -54 50 -53 67 1 21 64 -9
167 -48 167 -4 0 -15 -10 -23 -22z"/>
<path d="M13103 8193 c-23 -9 -15 -61 12 -79 45 -29 73 16 39 64 -15 22 -27
25 -51 15z"/>
<path d="M12970 8167 c-30 -15 -49 -61 -34 -84 17 -27 30 -26 69 8 61 54 34
112 -35 76z"/>
<path d="M704 8095 c-12 -30 -12 -40 -2 -63 14 -30 51 -40 73 -22 20 17 29 74
16 99 -8 14 -21 21 -42 21 -25 0 -33 -6 -45 -35z"/>
<path d="M12602 8118 c-19 -19 -14 -42 13 -68 20 -19 30 -22 43 -14 21 13 28
60 11 80 -14 17 -51 18 -67 2z"/>
<path d="M96 8078 c-8 -13 -19 -49 -25 -80 -6 -31 -20 -76 -31 -98 -30 -59
-37 -133 -16 -165 16 -24 49 -34 60 -17 3 5 8 31 11 58 10 82 15 97 46 137 46
57 51 133 13 171 -22 22 -41 20 -58 -6z"/>
<path d="M476 8058 c-25 -35 -20 -94 9 -124 52 -52 114 -8 100 70 -13 69 -77
100 -109 54z"/>
<path d="M14344 8023 c-12 -18 -18 -46 -17 -79 1 -89 37 -121 99 -88 l34 18
33 -32 c41 -40 57 -29 57 40 0 65 -16 98 -50 98 -18 0 -37 12 -57 35 -39 44
-73 46 -99 8z"/>
<path d="M13879 8019 c-27 -51 20 -169 67 -169 31 0 64 51 64 98 0 70 -102
125 -131 71z"/>
<path d="M802 7988 c-16 -16 -15 -50 2 -73 19 -26 46 -13 46 24 0 56 -20 77
-48 49z"/>
<path d="M14205 7953 c-15 -14 -19 -33 -16 -63 1 -8 23 -65 48 -126 31 -76 52
-113 67 -120 28 -12 31 -38 11 -81 l-17 -36 -25 27 c-31 34 -72 32 -90 -4 -18
-35 -16 -111 3 -138 23 -33 65 -29 86 8 22 38 29 37 48 -3 20 -43 45 -46 65
-7 19 38 36 35 51 -8 17 -54 30 -59 53 -21 14 22 21 51 21 83 0 43 4 53 32 76
26 22 30 31 24 53 -5 23 -9 26 -26 17 -52 -28 -123 11 -123 68 0 26 -5 33 -31
42 -24 8 -39 25 -64 73 -18 34 -32 70 -32 80 0 33 -28 84 -49 90 -12 3 -28 -1
-36 -10z"/>
<path d="M12951 7931 c-21 -14 -5 -43 21 -39 15 2 23 10 23 23 0 22 -22 30
-44 16z"/>
<path d="M13632 7928 c-19 -19 -14 -51 12 -87 29 -39 84 -81 106 -81 25 0 50
33 57 73 5 32 1 41 -30 72 -30 30 -41 35 -84 35 -27 0 -54 -5 -61 -12z"/>
<path d="M184 7895 c-38 -58 -7 -141 86 -229 64 -62 86 -67 108 -26 22 43 8
89 -47 144 -29 29 -56 68 -63 91 -10 32 -18 41 -40 43 -20 2 -31 -4 -44 -23z"/>
<path d="M504 7772 c-54 -8 -43 -86 16 -117 38 -20 63 -19 83 3 47 51 -19 127
-99 114z"/>
<path d="M762 7759 c-46 -23 -82 -65 -82 -97 0 -11 12 -30 26 -41 50 -40 113
-19 140 45 20 48 17 80 -8 98 -28 20 -25 20 -76 -5z"/>
<path d="M14087 7752 c-37 -41 -5 -142 44 -142 41 0 61 106 28 147 -16 19 -53
16 -72 -5z"/>
<path d="M1092 7748 c-19 -19 -15 -45 22 -141 36 -97 54 -121 79 -111 24 9 21
51 -11 164 -24 85 -30 95 -52 98 -14 2 -31 -3 -38 -10z"/>
<path d="M1336 7698 c-20 -28 -20 -57 -1 -85 19 -27 52 -35 70 -16 17 17 20
75 5 104 -14 26 -55 24 -74 -3z"/>
<path d="M13247 7702 c-23 -25 -21 -58 3 -82 24 -24 34 -25 54 -4 16 16 21 59
10 88 -8 22 -47 20 -67 -2z"/>
<path d="M13948 7624 c-53 -28 -75 -98 -52 -166 26 -80 70 -71 117 25 55 114
21 188 -65 141z"/>
<path d="M411 7583 c-12 -14 -24 -38 -27 -52 -22 -108 -41 -155 -82 -201 -33
-38 -43 -57 -40 -77 4 -37 48 -54 86 -33 35 19 82 112 82 162 0 21 11 61 25
88 31 61 33 115 6 130 -27 14 -27 14 -50 -17z"/>
<path d="M13455 7600 c-8 -12 33 -53 45 -45 6 4 10 17 10 31 0 19 -5 24 -24
24 -14 0 -27 -4 -31 -10z"/>
<path d="M13547 7582 c-21 -23 -22 -51 -1 -80 34 -48 87 -15 82 52 -3 38 -5
41 -34 44 -20 2 -36 -3 -47 -16z"/>
<path d="M34 7572 c-34 -22 -48 -140 -21 -176 19 -26 63 -23 87 5 39 48 16
179 -32 179 -13 0 -28 -4 -34 -8z"/>
<path d="M195 7550 c-20 -39 -19 -97 3 -140 22 -46 46 -50 66 -11 18 34 21
132 6 162 -17 30 -57 24 -75 -11z"/>
<path d="M560 7510 c-18 -18 -21 -28 -14 -54 4 -17 9 -70 10 -118 1 -47 5 -91
9 -97 9 -15 50 -14 63 2 11 13 22 261 12 270 -3 3 -17 8 -32 12 -20 5 -32 1
-48 -15z"/>
<path d="M13306 7508 c-41 -58 7 -155 55 -112 21 19 26 83 9 115 -14 26 -45
24 -64 -3z"/>
<path d="M1050 7403 c-22 -28 -21 -63 2 -90 30 -37 86 13 73 64 -14 59 -42 68
-75 26z"/>
<path d="M12983 7409 c-45 -17 -39 -99 8 -114 17 -6 27 -2 41 15 21 26 22 40
7 74 -14 30 -27 36 -56 25z"/>
<path d="M13817 7395 c-4 -8 0 -41 8 -73 7 -31 17 -85 20 -119 4 -34 13 -70
20 -80 13 -17 15 -17 37 5 19 18 22 32 21 80 0 31 -12 89 -25 127 -20 61 -26
70 -49 73 -17 2 -29 -3 -32 -13z"/>
<path d="M14100 7314 c-11 -29 -13 -106 -4 -154 6 -27 16 -36 58 -56 28 -12
65 -24 81 -26 l30 -3 -1 60 c-1 63 -34 145 -74 185 -30 30 -78 26 -90 -6z"/>
<path d="M14369 7283 c-16 -25 -25 -57 -27 -99 -4 -53 -9 -67 -33 -90 -24 -23
-29 -36 -29 -77 0 -43 -5 -55 -40 -94 -43 -50 -50 -84 -24 -121 10 -14 26 -22
44 -22 16 0 40 -4 54 -10 24 -9 26 -15 26 -64 0 -68 -12 -102 -52 -143 -24
-25 -32 -43 -36 -82 -4 -47 -9 -55 -67 -110 -35 -32 -68 -68 -74 -79 -25 -47
1 -163 34 -145 37 21 98 108 123 175 29 77 67 143 97 168 10 8 36 37 57 63 33
43 38 55 38 102 0 56 9 69 52 80 32 8 48 47 48 116 0 56 -10 67 -36 38 -31
-34 -61 -41 -99 -23 -44 21 -58 58 -50 131 9 71 21 86 106 128 36 18 71 41 79
50 13 15 11 20 -15 41 -32 25 -43 36 -81 78 -34 38 -67 34 -95 -11z"/>
<path d="M4 7266 c-3 -7 -4 -38 -2 -67 3 -47 6 -54 25 -57 48 -7 74 92 31 122
-28 20 -47 20 -54 2z"/>
<path d="M137 7222 c-22 -25 -21 -40 7 -114 13 -35 32 -90 43 -123 14 -47 23
-61 40 -63 32 -5 37 29 24 165 -12 127 -24 153 -71 153 -15 0 -34 -8 -43 -18z"/>
<path d="M13457 7182 c-21 -23 -22 -61 -1 -90 20 -29 40 -28 60 4 14 20 15 33
8 62 -10 43 -40 54 -67 24z"/>
<path d="M699 7169 c-16 -32 -5 -113 27 -176 29 -61 57 -81 81 -61 24 20 13
144 -19 205 -28 56 -68 71 -89 32z"/>
<path d="M13596 7174 c-21 -21 -20 -37 3 -58 40 -37 87 3 58 48 -20 30 -39 33
-61 10z"/>
<path d="M13954 7125 c-37 -57 -9 -141 60 -175 68 -33 85 10 45 112 -35 90
-73 112 -105 63z"/>
<path d="M472 7077 c-6 -7 -15 -32 -21 -56 -9 -41 -33 -70 -57 -71 -7 0 -26
-16 -43 -35 -26 -30 -31 -44 -31 -89 0 -43 6 -61 30 -94 16 -22 36 -57 44 -76
10 -24 22 -36 34 -36 29 0 33 23 20 101 -9 59 -8 78 5 122 9 29 19 70 24 92 7
34 12 40 36 43 27 3 47 32 47 67 0 36 -65 60 -88 32z"/>
<path d="M1322 7068 c-21 -21 -14 -76 12 -103 31 -31 54 -23 62 20 11 62 -38
119 -74 83z"/>
<path d="M13736 6978 c-33 -46 -10 -112 34 -101 32 8 43 79 18 111 -16 18 -35
15 -52 -10z"/>
<path d="M66 6968 c-3 -7 -7 -33 -11 -57 -3 -25 -15 -62 -27 -83 -18 -31 -20
-44 -12 -75 10 -41 12 -41 92 -32 l34 4 23 -80 c29 -95 31 -152 8 -185 -28
-41 -44 -49 -75 -38 -16 6 -32 7 -36 3 -12 -12 -3 -144 13 -180 17 -42 56 -55
94 -34 29 16 38 46 40 126 0 28 6 55 11 58 6 4 26 -9 45 -29 39 -42 48 -44 69
-14 23 33 20 49 -24 117 -38 59 -40 65 -40 144 0 97 -13 128 -57 139 -33 8
-33 9 -33 68 0 66 -12 105 -42 138 -23 24 -66 30 -72 10z"/>
<path d="M1229 6886 c-15 -33 -4 -76 20 -76 27 0 43 24 39 62 -4 43 -42 53
-59 14z"/>
<path d="M1626 6838 c-20 -29 -20 -72 0 -92 19 -20 24 -20 51 -1 24 17 35 59
22 92 -11 30 -52 31 -73 1z"/>
<path d="M13154 6815 c-22 -34 -5 -78 29 -73 17 2 23 11 25 36 3 32 -11 62
-29 62 -5 0 -16 -11 -25 -25z"/>
<path d="M13721 6796 c-7 -8 -11 -27 -9 -43 6 -58 78 -27 78 34 0 19 -5 23
-29 23 -16 0 -34 -6 -40 -14z"/>
<path d="M14078 6790 c-22 -13 -33 -67 -18 -85 6 -8 30 -15 53 -17 35 -3 44
-8 56 -33 24 -51 48 -58 81 -23 13 14 20 35 20 59 0 39 -11 49 -58 49 -15 0
-45 14 -66 30 -44 33 -44 33 -68 20z"/>
<path d="M13893 6778 c-6 -7 -13 -39 -16 -72 -3 -32 -13 -80 -23 -106 -19 -53
-14 -80 15 -80 59 0 133 214 89 258 -16 16 -53 15 -65 0z"/>
<path d="M892 6761 c-19 -11 -11 -71 11 -85 14 -8 20 -8 27 4 13 21 12 64 -2
78 -14 14 -19 15 -36 3z"/>
<path d="M624 6715 c-31 -47 1 -138 53 -151 56 -15 84 77 43 144 -25 41 -71
45 -96 7z"/>
<path d="M14499 6699 c-7 -14 -10 -46 -6 -87 5 -62 4 -66 -24 -89 -31 -27 -36
-54 -18 -100 7 -15 15 -46 18 -67 15 -95 50 -16 56 126 2 40 9 94 16 120 20
76 -12 151 -42 97z"/>
<path d="M13614 6653 c-16 -11 -34 -49 -34 -70 0 -31 24 -56 47 -49 28 9 60
82 46 104 -11 19 -42 26 -59 15z"/>
<path d="M914 6616 c-7 -31 11 -88 36 -111 10 -9 29 -15 42 -13 20 3 23 8 22
48 0 59 -27 100 -65 100 -22 0 -30 -6 -35 -24z"/>
<path d="M325 6576 c-29 -21 -10 -70 28 -74 25 -3 27 0 27 30 0 31 -14 58 -30
58 -3 0 -15 -6 -25 -14z"/>
<path d="M1277 6575 c-47 -46 -41 -145 9 -145 29 0 54 36 61 90 8 61 -32 93
-70 55z"/>
<path d="M13962 6568 c-20 -20 -14 -72 11 -96 58 -54 101 2 62 78 -16 32 -51
40 -73 18z"/>
<path d="M530 6460 c-24 -24 -26 -53 -4 -74 18 -19 65 -21 82 -4 18 18 14 63
-6 81 -25 22 -48 21 -72 -3z"/>
<path d="M13301 6466 c-16 -19 -7 -64 14 -73 25 -9 46 17 43 51 -3 35 -36 48
-57 22z"/>
<path d="M386 6442 c-14 -29 -28 -126 -30 -209 -1 -37 4 -57 16 -69 26 -27 48
-2 48 53 0 34 9 59 36 103 34 56 35 59 21 92 -10 24 -25 39 -46 46 -29 10 -32
9 -45 -16z"/>
<path d="M12520 6450 c-16 -16 -18 -24 -10 -40 6 -11 17 -20 25 -20 22 0 46
30 43 54 -4 28 -32 32 -58 6z"/>
<path d="M642 6428 c-17 -17 -15 -63 3 -78 24 -20 47 6 43 49 -3 38 -24 51
-46 29z"/>
<path d="M782 6398 c-28 -28 -3 -84 52 -112 41 -21 56 -11 56 36 0 64 -70 114
-108 76z"/>
<path d="M13883 6370 c-49 -20 -72 -103 -53 -194 19 -93 36 -87 104 38 53 96
63 131 46 151 -14 16 -62 19 -97 5z"/>
<path d="M461 6204 c-37 -47 -45 -99 -27 -173 32 -128 87 -221 133 -221 39 0
38 37 -4 131 -35 79 -38 90 -38 184 0 94 -1 100 -21 103 -14 2 -29 -7 -43 -24z"/>
<path d="M14451 6196 c-12 -19 -28 -37 -36 -40 -9 -3 -20 -17 -25 -31 -10 -26
-30 -34 -30 -12 0 7 -13 26 -29 41 -36 34 -74 28 -97 -17 -33 -63 -15 -129 42
-153 47 -20 83 -3 99 46 10 29 17 36 44 38 36 4 53 32 65 109 8 54 -7 62 -33
19z"/>
<path d="M13072 6213 c-7 -3 -20 -19 -28 -36 -16 -30 -16 -32 6 -49 12 -10 34
-21 49 -24 14 -3 44 -15 65 -26 38 -20 40 -20 53 -3 25 36 11 64 -38 74 -23 5
-35 13 -37 26 -6 34 -38 51 -70 38z"/>
<path d="M13580 6178 c-11 -18 -25 -49 -31 -68 -6 -19 -24 -61 -39 -92 -37
-76 -24 -124 32 -116 20 3 24 10 29 65 5 55 11 67 47 107 50 55 61 89 37 116
-26 29 -53 24 -75 -12z"/>
<path d="M665 6160 c-23 -45 -19 -97 9 -125 29 -29 53 -24 67 12 35 92 -34
195 -76 113z"/>
<path d="M216 6158 c-3 -7 -7 -35 -10 -63 -5 -41 -14 -57 -48 -92 l-42 -42 12
-52 c7 -29 17 -58 23 -66 14 -17 83 -17 96 0 6 6 15 46 21 87 6 41 16 100 23
131 11 50 11 60 -4 83 -18 28 -64 36 -71 14z"/>
<path d="M13291 6093 c-29 -20 -28 -68 3 -88 28 -19 54 -10 67 21 19 53 -27
97 -70 67z"/>
<path d="M1060 6065 c-20 -24 3 -65 35 -65 21 0 25 5 25 28 0 46 -35 68 -60
37z"/>
<path d="M13956 6047 c-28 -28 -35 -84 -14 -105 7 -7 28 -12 49 -12 22 0 47
-8 64 -22 16 -12 42 -29 58 -38 44 -22 67 -73 67 -147 0 -76 12 -110 45 -125
21 -9 29 -9 41 4 13 13 14 23 3 75 -10 48 -10 67 0 90 17 41 49 57 85 44 41
-16 50 -14 70 20 12 20 19 53 20 97 1 60 -1 67 -19 70 -11 1 -42 -13 -69 -32
l-49 -35 -27 19 c-23 16 -32 18 -63 8 -42 -13 -66 1 -87 53 -12 29 -32 38
-117 55 -26 5 -37 1 -57 -19z"/>
<path d="M1281 6001 c-17 -31 -13 -96 7 -121 40 -49 78 25 50 98 -16 42 -42
53 -57 23z"/>
<path d="M316 5968 c-20 -28 -20 -87 0 -163 18 -73 35 -100 77 -125 100 -61
130 16 51 131 -28 42 -50 87 -58 120 -9 43 -16 55 -33 57 -13 2 -27 -5 -37
-20z"/>
<path d="M1431 5942 c-42 -33 -20 -122 30 -122 26 0 49 38 49 80 0 58 -36 78
-79 42z"/>
<path d="M678 5938 c-12 -9 -18 -34 -21 -83 -2 -38 -10 -85 -17 -103 -13 -29
-12 -36 4 -67 20 -37 62 -57 76 -35 4 6 5 32 2 57 -5 43 -3 47 39 82 l43 38
-12 42 c-9 29 -23 48 -45 61 -38 23 -48 24 -69 8z"/>
<path d="M947 5932 c-26 -28 -21 -74 13 -118 16 -21 41 -56 55 -76 26 -39 52
-58 79 -58 28 0 18 52 -25 125 -22 39 -46 86 -52 105 -14 41 -44 51 -70 22z"/>
<path d="M13785 5904 c-29 -31 -32 -66 -9 -88 18 -19 20 -19 46 -5 11 6 26 26
34 45 28 66 -23 100 -71 48z"/>
<path d="M1406 5785 c-22 -22 -20 -68 4 -90 24 -22 47 -14 56 21 15 58 -25
103 -60 69z"/>
<path d="M197 5725 c-27 -28 -27 -24 5 -150 12 -46 16 -50 41 -47 56 6 88
-102 47 -163 -27 -40 -26 -55 14 -176 18 -57 37 -116 40 -131 4 -16 13 -28 21
-28 23 0 27 41 10 89 -18 52 -20 122 -3 139 7 7 22 12 34 12 12 0 31 11 41 26
l19 25 66 -31 c83 -39 131 -39 136 1 2 15 -4 43 -12 63 -12 30 -22 38 -61 48
-26 7 -51 21 -56 30 -5 10 -25 24 -43 32 -29 12 -33 18 -29 40 9 44 -19 73
-76 81 -61 8 -82 30 -88 92 -3 26 -10 54 -16 61 -16 20 -62 14 -90 -13z m254
-315 c-4 -59 -7 -63 -42 -45 -51 27 -35 99 21 93 23 -3 24 -6 21 -48z"/>
<path d="M13937 5739 c-28 -16 -47 -71 -47 -137 0 -62 11 -82 46 -82 28 0 39
14 58 79 17 57 20 108 10 135 -7 18 -40 20 -67 5z"/>
<path d="M13550 5720 c-25 -25 -25 -51 -2 -80 l19 -23 21 21 c24 24 29 71 10
90 -17 17 -25 15 -48 -8z"/>
<path d="M13785 5706 c-41 -41 -28 -116 20 -116 37 0 56 26 53 73 -2 28 -10
44 -25 54 -20 14 -24 13 -48 -11z"/>
<path d="M12936 5668 c-35 -56 -32 -132 6 -144 41 -13 89 85 68 140 -12 34
-54 35 -74 4z"/>
<path d="M13602 5600 c-34 -16 -47 -29 -63 -65 -37 -84 -11 -125 60 -95 53 22
113 150 80 171 -19 12 -27 11 -77 -11z"/>
<path d="M760 5510 c-26 -26 -27 -90 -2 -113 38 -35 86 -15 103 43 10 33 9 43
-5 65 -20 31 -67 34 -96 5z"/>
<path d="M14008 5523 c-34 -9 -45 -146 -14 -169 21 -15 150 -10 198 8 19 7 37
7 59 -1 38 -13 45 -9 64 36 20 48 20 109 -1 117 -38 14 -60 6 -84 -33 -14 -22
-36 -46 -49 -53 -25 -13 -23 -15 -98 75 -22 26 -38 30 -75 20z"/>
<path d="M1408 5479 c-29 -16 -23 -67 8 -81 22 -11 28 -10 40 7 17 22 18 40 4
66 -12 21 -26 23 -52 8z"/>
<path d="M12616 5399 c-31 -36 -33 -59 -8 -89 15 -19 22 -21 39 -11 53 28 84
111 47 125 -31 12 -53 5 -78 -25z"/>
<path d="M13261 5391 c-17 -30 -14 -88 5 -95 37 -14 70 31 62 85 -4 32 -52 39
-67 10z"/>
<path d="M1715 5380 c-18 -20 -18 -21 1 -47 27 -35 56 -45 83 -27 25 18 27 41
5 72 -19 28 -65 29 -89 2z"/>
<path d="M1124 5345 c-36 -56 -27 -155 16 -155 23 0 42 53 44 124 1 45 -1 51
-21 54 -14 2 -27 -5 -39 -23z"/>
<path d="M957 5353 c-20 -19 5 -120 43 -174 25 -34 64 -39 79 -10 31 57 -81
226 -122 184z"/>
<path d="M13794 5344 c-38 -19 -64 -62 -64 -108 0 -29 -4 -36 -19 -36 -41 0
-92 -101 -71 -140 9 -16 19 -20 53 -18 36 3 43 0 55 -25 8 -16 11 -40 7 -57
-5 -23 -12 -29 -38 -32 -27 -3 -35 -10 -54 -50 -14 -28 -36 -55 -58 -68 -44
-27 -58 -61 -49 -115 13 -79 51 -118 95 -95 16 9 20 18 15 38 -21 90 -21 87
28 140 31 33 49 62 53 85 5 31 8 35 37 33 26 -1 34 5 48 34 10 19 18 56 18 83
0 49 -2 52 -67 103 -18 14 -33 34 -33 44 0 15 6 17 40 13 34 -5 43 -2 70 25
25 25 30 39 30 76 0 33 -6 52 -20 66 -24 24 -35 24 -76 4z"/>
<path d="M685 5249 c-11 -33 3 -84 30 -109 22 -20 28 -22 51 -11 23 10 26 16
21 46 -12 76 -85 128 -102 74z"/>
<path d="M14124 5236 c-11 -8 -44 -24 -73 -35 -71 -27 -91 -46 -91 -90 0 -24
-8 -43 -26 -62 -28 -29 -34 -70 -15 -93 11 -12 18 -12 54 4 25 11 46 15 51 10
5 -5 12 -54 15 -109 5 -77 10 -104 24 -118 16 -17 18 -16 36 2 26 28 61 146
61 206 0 36 -7 63 -26 94 -28 49 -25 62 21 105 35 32 49 68 34 86 -15 18 -39
18 -65 0z"/>
<path d="M13515 5221 c-33 -14 -56 -47 -62 -88 -11 -79 52 -81 96 -2 37 65 19
112 -34 90z"/>
<path d="M512 5180 c-20 -9 -22 -16 -22 -77 2 -146 -7 -309 -17 -333 -8 -20
-7 -36 8 -75 11 -28 26 -59 34 -69 13 -18 16 -18 40 -2 29 19 31 34 9 107 -10
34 -14 71 -11 102 7 53 34 107 55 107 7 0 33 -17 58 -37 34 -29 44 -44 44 -68
0 -60 43 -90 91 -65 39 22 9 106 -41 117 -25 5 -30 10 -31 37 -2 78 -137 270
-187 265 -4 0 -17 -4 -30 -9z"/>
<path d="M12268 5176 c-24 -18 -23 -39 3 -62 15 -14 24 -16 37 -8 23 15 26 48
7 68 -20 19 -25 19 -47 2z"/>
<path d="M14226 5174 c-3 -9 -6 -23 -6 -31 0 -13 3 -13 15 -3 16 13 21 50 6
50 -5 0 -12 -7 -15 -16z"/>
<path d="M863 5100 c-29 -26 -29 -48 0 -91 66 -99 172 -60 122 45 -21 43 -34
54 -71 62 -21 4 -35 0 -51 -16z"/>
<path d="M12777 5092 c-32 -35 -20 -95 24 -117 60 -32 119 -5 119 54 0 62
-103 107 -143 63z"/>
<path d="M13168 5099 c-34 -19 -16 -99 22 -99 26 0 52 42 48 77 -2 22 -9 29
-28 30 -14 2 -33 -2 -42 -8z"/>
<path d="M13266 5067 c-21 -15 -13 -44 16 -53 30 -9 44 10 30 41 -13 28 -21
30 -46 12z"/>
<path d="M13512 4958 c-7 -7 -12 -27 -12 -46 0 -26 -9 -43 -40 -74 -43 -44
-51 -79 -24 -109 29 -33 49 -12 98 103 26 61 45 117 42 124 -7 17 -48 18 -64
2z"/>
<path d="M1283 4953 c-26 -10 -14 -53 20 -73 40 -25 59 -25 81 -1 39 43 -39
100 -101 74z"/>
<path d="M13324 4915 c-9 -14 -19 -45 -22 -70 -2 -25 -9 -42 -14 -39 -38 23
-98 -44 -98 -109 0 -71 62 -54 102 28 17 34 28 45 45 45 28 0 53 36 60 88 10
73 -38 110 -73 57z"/>
<path d="M905 4920 c-20 -32 36 -138 67 -128 29 10 31 36 7 84 -24 49 -58 69
-74 44z"/>
<path d="M1440 4887 c-70 -35 6 -186 82 -161 54 17 48 137 -9 163 -30 14 -42
14 -73 -2z"/>
<path d="M13865 4860 c-4 -6 -4 -32 0 -58 6 -45 4 -49 -24 -70 -23 -17 -35
-38 -48 -83 -16 -57 -20 -62 -79 -100 -37 -24 -67 -52 -74 -69 -22 -52 -55
-75 -110 -72 -42 2 -51 -2 -69 -24 -12 -15 -21 -39 -21 -55 0 -40 25 -51 75
-33 23 8 55 12 77 8 65 -10 120 33 147 114 18 54 42 65 70 31 18 -22 19 -22
45 -6 14 10 26 23 26 30 1 6 5 43 9 80 8 55 16 77 45 114 20 26 36 52 36 59 0
17 -40 54 -58 54 -11 0 -12 3 -3 14 20 24 10 70 -16 74 -11 2 -24 -2 -28 -8z"/>
<path d="M1037 4823 c-27 -26 9 -100 88 -183 24 -25 50 -59 59 -77 14 -28 42
-53 60 -53 3 0 10 8 15 18 14 27 -15 83 -104 200 -71 94 -98 116 -118 95z"/>
<path d="M1877 4803 c-25 -24 9 -103 44 -103 15 0 19 7 19 38 0 49 -39 89 -63
65z"/>
<path d="M684 4701 c-75 -34 -96 -94 -64 -182 18 -47 22 -72 17 -120 -6 -70 2
-103 39 -167 l28 -47 12 30 c7 17 13 43 14 58 0 16 11 43 25 61 24 31 24 33 9
81 -22 75 -19 80 56 80 59 0 65 2 68 21 4 26 -113 184 -144 195 -13 4 -36 0
-60 -10z"/>
<path d="M1842 4678 c-20 -20 -14 -58 14 -83 30 -28 56 -32 74 -10 17 20 4 51
-34 80 -38 29 -38 29 -54 13z"/>
<path d="M13356 4599 c-29 -23 -33 -47 -12 -87 22 -43 51 -64 83 -60 64 7 67
120 3 153 -37 19 -42 19 -74 -6z"/>
<path d="M932 4578 c-19 -19 -14 -62 11 -98 62 -92 133 -85 107 11 -20 75 -83
122 -118 87z"/>
<path d="M12512 4514 c-12 -8 -22 -25 -22 -38 0 -43 59 -73 88 -44 17 17 15
64 -4 82 -19 20 -34 20 -62 0z"/>
<path d="M13195 4465 c-35 -34 -32 -79 6 -83 32 -4 82 49 77 82 -5 33 -51 33
-83 1z"/>
<path d="M12694 4470 c-59 -24 -87 -121 -36 -128 46 -7 110 89 82 123 -14 17
-17 17 -46 5z"/>
<path d="M12195 4435 c-31 -30 -33 -77 -5 -105 24 -24 38 -25 66 -2 41 33 57
95 32 120 -20 20 -67 14 -93 -13z"/>
<path d="M13862 4391 c-8 -5 -22 -33 -31 -62 -17 -52 -19 -54 -61 -60 -52 -7
-113 -65 -108 -102 3 -23 12 -25 82 -11 37 7 39 6 33 -17 -3 -13 -9 -49 -13
-79 -7 -52 -6 -54 11 -40 21 17 85 149 85 174 0 10 12 33 26 51 30 39 67 132
59 146 -8 11 -65 12 -83 0z"/>
<path d="M1286 4373 c-4 -4 -14 -23 -21 -41 -19 -43 -52 -54 -140 -46 -94 8
-100 -4 -51 -99 34 -65 36 -73 36 -170 0 -122 11 -166 52 -213 23 -26 38 -34
57 -32 23 3 26 7 25 43 -1 22 -7 60 -13 84 -7 24 -9 63 -5 87 6 39 3 45 -35
87 -23 24 -41 51 -41 60 0 28 30 49 60 42 24 -5 37 2 84 44 31 28 60 51 65 51
5 0 14 13 19 29 15 43 -4 75 -49 79 -19 2 -38 -1 -43 -5z"/>
<path d="M872 4314 c-28 -19 -28 -55 -1 -110 21 -45 80 -104 103 -104 48 0 27
136 -30 196 -36 39 -41 40 -72 18z"/>
<path d="M13020 4291 c-48 -10 -57 -17 -65 -50 -9 -42 17 -97 48 -103 57 -11
117 39 117 98 0 48 -35 67 -100 55z"/>
<path d="M2428 4209 c-20 -11 -23 -41 -8 -70 13 -24 67 -52 86 -45 30 11 5
106 -31 120 -22 8 -27 7 -47 -5z"/>
<path d="M13152 4182 c-26 -24 -52 -83 -52 -118 0 -23 24 -33 47 -20 54 28
103 137 72 157 -23 14 -35 11 -67 -19z"/>
<path d="M1642 4171 c-21 -13 -4 -57 39 -96 82 -74 128 -18 53 65 -35 39 -64
49 -92 31z"/>
<path d="M13570 4157 c-16 -8 -29 -27 -37 -57 -15 -50 -33 -75 -33 -44 0 38
-14 47 -52 35 -48 -16 -86 -59 -104 -116 -16 -56 -17 -65 -5 -84 7 -11 14 -11
41 2 31 16 33 16 49 -4 16 -20 18 -20 58 -4 67 27 94 18 123 -40 14 -27 32
-51 40 -53 18 -3 80 115 80 152 0 43 -33 61 -111 57 l-70 -2 15 30 c9 17 25
35 35 41 21 11 46 74 36 90 -8 13 -35 12 -65 -3z"/>
<path d="M13249 4121 c-34 -35 -36 -54 -9 -81 27 -27 56 -25 85 6 66 72 -7
143 -76 75z"/>
<path d="M1534 4095 c-17 -27 -14 -76 7 -102 16 -18 56 -16 63 3 13 33 6 84
-14 104 -26 26 -36 25 -56 -5z"/>
<path d="M2196 4101 c-23 -25 -12 -64 26 -96 39 -33 76 -33 84 0 20 78 -62
149 -110 96z"/>
<path d="M891 3990 c-15 -36 -27 -50 -41 -50 -11 0 -20 -5 -20 -10 0 -6 29
-62 64 -124 36 -63 72 -130 80 -149 10 -26 23 -38 43 -42 15 -4 34 -9 41 -11
8 -2 34 5 59 16 42 18 45 22 38 47 -11 45 -53 92 -101 115 -25 11 -52 31 -61
44 -13 21 -13 28 1 72 18 54 12 86 -24 122 -34 34 -55 26 -79 -30z"/>
<path d="M1425 4010 c-15 -17 -16 -23 -5 -51 18 -41 55 -66 75 -49 23 19 18
68 -10 95 -29 30 -37 31 -60 5z"/>
<path d="M12509 3990 c-22 -22 -29 -37 -27 -57 7 -62 95 -27 113 44 12 50 -41
58 -86 13z"/>
<path d="M12842 3988 c-12 -6 -25 -21 -28 -34 -18 -72 32 -100 80 -44 51 61
18 111 -52 78z"/>
<path d="M12604 3899 c-40 -11 -66 -41 -62 -71 2 -19 10 -24 40 -26 45 -4 78
24 78 67 0 34 -13 41 -56 30z"/>
<path d="M13123 3903 c-31 -6 -45 -27 -41 -65 2 -27 8 -34 29 -36 29 -3 69 36
69 67 0 17 -19 42 -29 40 -4 -1 -16 -4 -28 -6z"/>
<path d="M12093 3878 c-30 -38 -21 -81 17 -91 32 -8 62 26 58 66 -3 28 -7 32
-34 35 -17 2 -35 -3 -41 -10z"/>
<path d="M2260 3860 c0 -5 7 -28 16 -50 23 -57 104 -120 155 -120 36 0 39 2
39 27 0 42 -46 111 -90 133 -41 21 -120 27 -120 10z"/>
<path d="M1972 3848 c-20 -20 -14 -48 18 -79 61 -61 110 -7 55 60 -28 33 -53
39 -73 19z"/>
<path d="M1321 3826 c-17 -20 2 -54 35 -62 35 -9 50 9 38 43 -11 32 -53 43
-73 19z"/>
<path d="M1718 3800 c-25 -21 -38 -40 -38 -56 0 -39 26 -80 61 -94 28 -12 33
-12 45 5 8 10 14 28 14 40 0 11 7 31 16 43 8 12 14 37 12 55 -3 29 -7 32 -38
35 -27 2 -44 -4 -72 -28z"/>
<path d="M13472 3793 c-43 -8 -68 -107 -38 -148 13 -19 15 -18 48 7 19 14 43
45 53 68 l19 42 -23 19 c-13 11 -26 18 -30 18 -3 -1 -17 -4 -29 -6z"/>
<path d="M11574 3713 c-37 -40 -56 -80 -52 -111 5 -44 41 -41 88 7 60 60 68
123 18 129 -20 2 -35 -5 -54 -25z"/>
<path d="M12766 3724 c-24 -23 -16 -37 32 -52 49 -16 53 -35 22 -103 -21 -47
-26 -84 -12 -93 15 -9 81 14 91 32 5 10 12 35 16 56 4 21 19 58 32 82 13 24
23 54 21 66 -3 22 -8 23 -94 26 -75 2 -95 0 -108 -14z"/>
<path d="M13091 3714 c-44 -56 -55 -165 -18 -172 39 -8 65 8 86 51 26 55 27
87 0 121 -26 33 -42 33 -68 0z"/>
<path d="M1243 3719 c-49 -18 -67 -84 -38 -139 28 -54 72 -64 110 -25 20 19
25 34 25 72 0 75 -40 113 -97 92z"/>
<path d="M12420 3715 c-17 -21 -8 -50 17 -53 25 -4 46 27 37 52 -8 20 -38 21
-54 1z"/>
<path d="M12647 3698 c-51 -18 -48 -110 4 -116 32 -4 60 27 62 68 2 41 -26 62
-66 48z"/>
<path d="M13233 3666 c-50 -23 -55 -75 -11 -123 28 -30 65 -37 95 -17 22 14
25 21 20 57 -6 43 -35 91 -58 94 -8 1 -28 -4 -46 -11z"/>
<path d="M1494 3645 c-21 -32 -14 -120 12 -164 51 -87 136 -50 120 52 -18 109
-92 172 -132 112z"/>
<path d="M12240 3618 c-25 -17 -67 -43 -95 -58 -40 -20 -51 -31 -53 -53 -7
-62 43 -75 93 -25 18 19 56 41 90 53 68 23 84 42 69 82 -14 41 -50 41 -104 1z"/>
<path d="M2310 3604 c-20 -23 -1 -64 38 -87 37 -22 62 -11 62 28 0 55 -70 96
-100 59z"/>
<path d="M13378 3583 c-14 -16 -29 -39 -33 -53 -4 -14 -17 -32 -29 -40 -12 -8
-38 -30 -59 -49 -33 -29 -38 -39 -35 -70 3 -33 6 -36 30 -33 37 4 190 107 207
139 16 31 9 88 -15 114 -23 26 -36 24 -66 -8z"/>
<path d="M13088 3498 c-18 -20 -48 -66 -67 -103 l-34 -66 11 -79 11 -80 -49
-99 c-45 -91 -86 -141 -114 -141 -30 1 -41 21 -47 96 -5 70 -9 80 -37 105 -35
32 -93 46 -130 33 -33 -12 -62 -52 -65 -89 -2 -23 4 -33 32 -49 19 -12 51 -37
72 -56 63 -61 65 -151 4 -219 -57 -63 -65 -110 -29 -168 28 -45 100 -17 153
61 35 50 37 68 16 119 -8 20 -15 38 -15 41 0 9 89 65 137 86 77 34 93 54 93
118 0 47 5 61 40 109 37 52 40 61 40 122 0 36 9 98 20 136 24 83 25 114 6 140
-14 19 -15 18 -48 -17z"/>
<path d="M1080 3478 c0 -6 11 -25 24 -42 12 -17 31 -46 40 -64 9 -18 28 -38
40 -44 13 -5 30 -21 37 -35 14 -25 76 -63 104 -63 8 0 20 9 27 20 18 28 24 26
53 -17 14 -21 37 -53 50 -72 31 -42 32 -83 3 -137 -20 -38 -21 -45 -8 -83 7
-22 24 -50 37 -62 l23 -23 40 23 c60 34 84 26 90 -29 8 -62 24 -86 64 -100 52
-17 96 -72 96 -120 l0 -39 -48 48 c-44 44 -112 90 -112 76 0 -36 112 -174 153
-188 9 -4 17 -14 17 -23 0 -16 80 -112 107 -127 12 -7 13 4 8 80 -11 159 -13
167 -45 187 -36 21 -46 53 -30 100 16 48 6 70 -51 126 -49 47 -49 48 -49 112
0 53 -5 72 -29 110 -16 25 -32 65 -36 89 -9 59 -28 86 -65 94 -33 7 -70 -15
-70 -42 0 -28 -18 -11 -61 58 -97 155 -113 179 -128 184 -27 11 -35 -12 -23
-66 7 -29 10 -54 8 -56 -2 -3 -15 2 -28 10 -12 9 -39 18 -59 22 -25 5 -51 22
-85 56 -46 46 -94 66 -94 37z m542 -385 c22 -71 22 -74 3 -67 -27 11 -55 69
-55 115 0 41 1 42 17 26 9 -9 25 -42 35 -74z"/>
<path d="M2012 3467 c-35 -16 -65 -82 -57 -123 10 -57 77 -73 120 -29 33 32
35 100 4 139 -22 28 -32 30 -67 13z"/>
<path d="M1761 3393 c-33 -23 -27 -69 13 -109 28 -28 42 -34 75 -34 34 0 43 4
52 24 30 65 -82 160 -140 119z"/>
<path d="M12426 3377 c-11 -8 -17 -23 -14 -38 5 -36 60 -40 83 -6 8 13 13 32
9 41 -7 19 -53 21 -78 3z"/>
<path d="M1615 3360 c-27 -30 2 -88 39 -74 23 9 22 70 -3 83 -14 8 -22 6 -36
-9z"/>
<path d="M12742 3350 c-32 -13 -48 -53 -34 -85 25 -56 99 -55 124 0 9 21 8 32
-5 60 -18 37 -39 43 -85 25z"/>
<path d="M12620 3312 c-32 -32 -38 -60 -18 -80 33 -33 91 17 86 72 -4 42 -31
45 -68 8z"/>
<path d="M2091 3297 c-17 -17 -13 -30 19 -78 24 -35 30 -55 30 -98 0 -61 24
-109 65 -131 61 -33 83 53 33 127 -15 22 -29 60 -33 90 -4 33 -14 58 -28 71
-26 23 -72 33 -86 19z"/>
<path d="M13289 3265 c-19 -13 -53 -34 -75 -46 -37 -19 -74 -69 -74 -99 0 -5
-11 -26 -25 -46 -14 -20 -25 -43 -25 -51 0 -21 28 -27 57 -12 25 14 166 192
186 236 17 38 -4 47 -44 18z"/>
<path d="M12357 3228 c-46 -16 -49 -90 -4 -102 28 -7 65 18 73 49 12 49 -16
70 -69 53z"/>
<path d="M2433 3184 c-10 -26 28 -85 64 -102 30 -14 35 -14 49 -1 21 22 9 63
-28 94 -34 29 -76 33 -85 9z"/>
<path d="M12096 3129 c-31 -24 -34 -54 -7 -69 44 -23 101 38 71 75 -17 20 -32
19 -64 -6z"/>
<path d="M12461 3116 c-29 -31 -26 -80 5 -84 27 -4 74 50 74 84 0 20 -5 24
-28 24 -17 0 -38 -10 -51 -24z"/>
<path d="M11709 3109 c-25 -25 -23 -72 4 -77 27 -5 67 36 67 70 0 23 -4 28
-25 28 -14 0 -34 -9 -46 -21z"/>
<path d="M1813 3073 c-18 -47 82 -137 126 -113 25 13 27 47 5 78 -32 46 -118
69 -131 35z"/>
<path d="M12196 3071 c-26 -28 -17 -66 14 -66 32 0 58 48 40 71 -17 19 -34 18
-54 -5z"/>
<path d="M2855 2938 c-42 -24 -47 -63 -12 -104 25 -29 66 -35 92 -14 24 20 19
77 -10 105 -27 28 -40 30 -70 13z"/>
<path d="M2180 2914 c0 -36 32 -85 87 -134 56 -49 88 -59 111 -36 16 15 15 20
-7 62 -28 52 -130 134 -167 134 -19 0 -24 -5 -24 -26z"/>
<path d="M2042 2894 c-29 -12 -32 -17 -32 -55 0 -33 6 -47 34 -75 77 -77 150
-6 98 95 -20 42 -56 54 -100 35z"/>
<path d="M11881 2859 c-66 -40 -99 -142 -64 -201 29 -49 51 -43 89 27 48 86
57 174 20 188 -7 3 -28 -3 -45 -14z"/>
<path d="M2648 2843 c-26 -7 -33 -48 -15 -96 9 -23 15 -54 15 -69 -1 -33 17
-57 51 -70 80 -30 80 170 0 226 -13 9 -26 15 -29 15 -3 -1 -13 -3 -22 -6z"/>
<path d="M12898 2839 c-26 -15 -22 -63 6 -96 l24 -27 37 37 c28 28 36 43 33
64 -3 25 -7 28 -43 30 -22 2 -48 -2 -57 -8z"/>
<path d="M11138 2816 c-13 -31 -4 -59 19 -54 21 4 44 45 36 64 -8 23 -43 16
-55 -10z"/>
<path d="M12453 2833 c-46 -8 -84 -103 -63 -154 15 -36 65 -54 106 -39 75 28
138 96 111 118 -7 6 -30 15 -51 21 -22 6 -49 21 -60 34 -14 15 -29 22 -43 20z"/>
<path d="M11330 2773 c-37 -15 -41 -66 -6 -89 22 -13 29 -14 53 -2 24 11 28
19 28 53 0 37 -2 40 -30 42 -16 1 -37 -1 -45 -4z"/>
<path d="M12265 2750 c-46 -18 -75 -89 -48 -116 35 -35 126 10 131 65 5 53
-28 74 -83 51z"/>
<path d="M1980 2675 c-18 -21 -5 -47 22 -43 31 4 40 58 10 58 -11 0 -25 -7
-32 -15z"/>
<path d="M10637 2658 c-34 -12 -47 -53 -24 -76 22 -21 64 -2 73 34 9 36 -12
55 -49 42z"/>
<path d="M2315 2620 c-4 -6 -1 -26 5 -44 13 -40 76 -91 206 -165 74 -43 96
-51 139 -51 49 0 51 -1 93 -56 40 -51 45 -55 80 -52 49 4 54 34 15 78 -21 23
-39 33 -73 37 -39 5 -53 14 -100 64 -46 49 -61 59 -88 59 -49 0 -96 24 -146
74 -25 25 -54 50 -65 56 -25 13 -58 13 -66 0z"/>
<path d="M2113 2604 c-9 -23 20 -77 50 -93 59 -31 79 28 28 80 -32 32 -68 38
-78 13z"/>
<path d="M3648 2559 c-28 -16 -23 -64 8 -88 35 -28 62 -27 74 3 23 62 -29 116
-82 85z"/>
<path d="M10791 2514 c-25 -32 -27 -57 -5 -78 22 -22 41 -20 70 9 19 19 24 34
22 58 -3 28 -7 32 -34 35 -25 2 -37 -3 -53 -24z"/>
<path d="M11480 2533 c-52 -19 -65 -71 -28 -118 16 -21 21 -39 19 -74 -2 -51
24 -91 58 -91 32 0 81 22 91 40 23 42 12 77 -36 116 -36 30 -44 42 -40 60 13
51 -18 84 -64 67z"/>
<path d="M2046 2489 c-33 -26 -34 -70 -3 -130 25 -48 75 -83 101 -73 21 8 42
48 51 96 9 48 -16 95 -60 114 -46 19 -57 18 -89 -7z"/>
<path d="M12039 2481 c-65 -21 -133 -65 -177 -116 -35 -39 -39 -57 -18 -74 17
-14 45 -3 83 32 15 13 56 27 120 39 54 10 109 27 123 37 28 20 38 65 19 87
-16 19 -81 17 -150 -5z"/>
<path d="M12648 2480 c-9 -6 -30 -33 -47 -60 -29 -47 -34 -50 -71 -50 -59 0
-107 -24 -131 -64 -13 -22 -33 -39 -55 -46 -38 -13 -38 -13 -23 -41 10 -20 10
-20 42 0 22 14 37 17 47 11 24 -15 63 -11 93 9 46 30 208 212 205 230 -4 19
-36 25 -60 11z"/>
<path d="M3556 2441 c-15 -17 -16 -25 -6 -54 12 -38 26 -47 71 -47 18 0 36 -8
47 -21 34 -41 43 -48 57 -43 16 6 20 41 7 60 -4 6 -20 18 -36 26 -16 8 -41 33
-55 54 -31 45 -59 53 -85 25z"/>
<path d="M12354 2416 c-36 -36 -44 -75 -19 -96 46 -38 126 75 83 118 -18 18
-27 15 -64 -22z"/>
<path d="M4302 2394 c-47 -33 -7 -89 60 -82 45 4 52 46 12 77 -32 25 -43 26
-72 5z"/>
<path d="M11052 2400 c-40 -16 -53 -100 -17 -113 34 -14 115 73 101 109 -6 16
-49 18 -84 4z"/>
<path d="M2348 2389 c-26 -15 -22 -55 10 -88 36 -39 64 -46 92 -23 59 48 -36
150 -102 111z"/>
<path d="M3167 2373 c-18 -17 -4 -53 33 -87 43 -39 70 -45 90 -21 11 13 10 21
-7 43 -35 48 -98 83 -116 65z"/>
<path d="M11632 2280 c-35 -15 -48 -54 -28 -85 21 -32 50 -32 82 0 35 35 31
89 -6 92 -14 1 -35 -2 -48 -7z"/>
<path d="M2259 2273 c-40 -10 -49 -85 -19 -150 16 -36 24 -43 48 -43 16 0 35
6 41 14 33 39 20 142 -22 171 -12 8 -24 14 -27 14 -3 -1 -12 -3 -21 -6z"/>
<path d="M2599 2241 c-44 -45 -40 -83 15 -135 25 -22 51 -57 59 -76 28 -66
104 -125 136 -105 19 11 12 31 -29 93 -26 38 -40 71 -40 91 0 33 -38 118 -65
145 -24 23 -43 20 -76 -13z"/>
<path d="M12159 2231 c-91 -45 -159 -123 -140 -159 24 -44 70 -75 120 -80 46
-4 50 -3 64 25 35 66 42 185 14 221 -12 15 -14 15 -58 -7z"/>
<path d="M3046 2124 c-21 -21 -20 -40 4 -64 24 -24 72 -26 94 -4 21 20 20 26
-5 58 -24 30 -69 35 -93 10z"/>
<path d="M11271 2127 c-20 -25 -24 -72 -7 -86 31 -26 96 42 80 84 -8 19 -58
20 -73 2z"/>
<path d="M2474 2082 c-6 -36 -12 -44 -50 -62 -35 -17 -49 -19 -78 -11 -51 13
-47 -6 9 -60 60 -57 72 -63 123 -60 33 2 53 -4 90 -28 49 -31 190 -91 215 -91
44 0 45 74 2 108 -13 11 -61 26 -106 35 -117 24 -152 63 -89 99 17 9 30 23 30
31 0 26 -57 68 -99 74 l-40 6 -7 -41z"/>
<path d="M3272 2108 c-17 -17 -15 -31 8 -61 28 -35 87 -54 106 -35 11 11 12
21 5 41 -17 44 -94 80 -119 55z"/>
<path d="M11864 2100 c-26 -10 -54 -48 -54 -71 0 -26 26 -41 59 -34 75 16 112
107 46 112 -16 1 -40 -2 -51 -7z"/>
<path d="M10259 2089 c-35 -13 -56 -61 -41 -94 28 -61 140 5 130 76 -2 19 -10
24 -33 26 -16 1 -42 -3 -56 -8z"/>
<path d="M10631 2087 c-66 -23 -67 -79 -3 -85 23 -2 38 4 57 22 29 29 31 39 9
60 -18 19 -18 19 -63 3z"/>
<path d="M10000 2063 c-51 -19 -65 -66 -26 -84 50 -23 109 36 76 77 -13 15
-25 16 -50 7z"/>
<path d="M11606 2019 c-51 -28 -133 -110 -142 -143 -7 -29 6 -51 35 -59 13 -3
33 9 62 39 24 24 50 44 59 44 8 0 36 8 62 17 57 20 86 64 64 98 -19 29 -90 31
-140 4z"/>
<path d="M2905 2003 c-31 -8 -55 -34 -55 -59 0 -44 79 -114 129 -114 55 0 86
124 39 154 -27 17 -84 27 -113 19z"/>
<path d="M3530 1965 c-18 -22 -4 -45 43 -68 28 -14 41 -16 57 -7 11 6 20 17
20 24 0 46 -92 85 -120 51z"/>
<path d="M12163 1973 c-28 -5 -109 -99 -119 -137 l-7 -28 29 15 c16 8 58 43
93 77 51 48 62 64 50 71 -8 5 -16 8 -19 7 -3 0 -15 -3 -27 -5z"/>
<path d="M10698 1919 c-35 -13 -43 -39 -25 -81 21 -48 52 -73 95 -72 45 0 92
29 92 56 0 44 -23 96 -44 102 -31 8 -87 6 -118 -5z"/>
<path d="M11112 1885 c-74 -32 -147 -109 -135 -142 7 -19 49 -16 94 8 32 16
50 19 82 13 23 -4 54 -6 69 -5 21 1 26 -2 22 -13 -3 -9 -14 -18 -25 -21 -34
-11 -64 -94 -39 -110 5 -3 27 -1 48 6 46 13 82 0 82 -31 0 -35 12 -50 39 -50
27 0 196 51 231 70 15 8 19 3 29 -34 6 -24 19 -53 28 -65 l18 -21 51 34 c28
19 58 45 67 59 15 24 15 27 -5 52 -29 37 -63 48 -104 35 -29 -10 -36 -8 -54
10 -12 12 -27 20 -33 17 -121 -43 -145 -50 -170 -43 -32 8 -47 39 -47 96 0 35
-2 38 -35 44 -33 6 -34 8 -22 33 10 23 8 28 -16 49 -23 19 -39 24 -85 24 -31
-1 -72 -7 -90 -15z"/>
<path d="M11855 1858 c-51 -28 -71 -90 -39 -122 26 -26 64 -19 99 18 55 59 51
116 -8 116 -18 0 -41 -6 -52 -12z"/>
<path d="M5542 1844 c-41 -17 -43 -54 -5 -90 57 -53 130 -3 93 63 -20 35 -49
44 -88 27z"/>
<path d="M3092 1838 c-17 -17 -15 -32 9 -62 33 -42 89 -30 89 19 0 44 -68 73
-98 43z"/>
<path d="M9039 1820 l-24 -20 28 -25 c43 -38 87 -28 87 20 0 46 -50 60 -91 25z"/>
<path d="M2867 1798 c-9 -5 -17 -18 -17 -30 0 -24 80 -108 103 -108 26 0 29
36 8 78 -29 56 -63 78 -94 60z"/>
<path d="M2566 1781 c-8 -12 32 -61 58 -71 12 -4 26 -3 33 2 18 14 0 44 -37
63 -33 17 -47 19 -54 6z"/>
<path d="M9382 1773 c-49 -10 -34 -63 17 -63 36 0 64 22 60 46 -4 20 -32 26
-77 17z"/>
<path d="M9861 1771 c-23 -15 -5 -43 26 -39 20 2 28 9 28 23 0 22 -31 31 -54
16z"/>
<path d="M9538 1763 c-39 -10 -27 -68 16 -79 46 -11 101 41 75 72 -11 13 -54
17 -91 7z"/>
<path d="M10363 1720 c-32 -19 -51 -59 -38 -79 16 -27 116 3 136 41 6 10 7 28
4 38 -8 27 -59 26 -102 0z"/>
<path d="M3387 1692 c-20 -22 -22 -51 -5 -86 14 -33 36 -40 128 -41 41 0 92
-7 113 -14 81 -28 93 18 15 54 -29 14 -58 25 -64 25 -6 0 -35 18 -64 40 -59
44 -97 51 -123 22z"/>
<path d="M10850 1655 c-50 -16 -90 -47 -90 -71 0 -25 49 -35 164 -32 98 3 111
5 114 21 15 80 -72 117 -188 82z"/>
<path d="M2719 1642 c11 -22 30 -37 126 -108 56 -41 65 -44 122 -44 59 0 69
-4 161 -60 55 -34 112 -62 128 -63 27 -2 29 1 32 35 7 87 -37 130 -149 144
-65 8 -80 15 -143 68 -44 37 -53 41 -95 38 -69 -5 -112 -4 -154 3 -37 7 -38 6
-28 -13z"/>
<path d="M9965 1635 c-30 -30 -31 -54 -4 -89 24 -30 48 -33 78 -8 43 34 20
122 -31 122 -10 0 -30 -11 -43 -25z"/>
<path d="M3790 1631 c-39 -11 -37 -43 6 -91 37 -41 38 -42 26 -86 -15 -55 -4
-80 43 -100 68 -28 80 1 40 92 -16 35 -25 75 -25 106 0 82 -19 99 -90 79z"/>
<path d="M10196 1614 c-10 -9 -16 -33 -16 -57 0 -25 -8 -54 -20 -72 -25 -37
-25 -61 -2 -74 22 -12 53 6 120 66 55 50 65 91 29 127 -30 30 -86 35 -111 10z"/>
<path d="M4098 1579 c-23 -13 -39 -74 -28 -105 29 -75 160 -37 160 46 0 50
-83 88 -132 59z"/>
<path d="M6543 1580 c-31 -12 -29 -44 3 -69 35 -27 50 -26 70 4 15 23 15 27 0
50 -17 26 -36 30 -73 15z"/>
<path d="M8563 1538 c-42 -20 -33 -68 13 -68 60 0 102 42 68 67 -21 15 -51 16
-81 1z"/>
<path d="M11035 1496 c-55 -24 -71 -96 -32 -142 60 -69 158 12 126 104 -8 22
-46 55 -62 52 -1 -1 -16 -7 -32 -14z"/>
<path d="M9053 1486 c-36 -16 -57 -48 -48 -75 8 -27 30 -32 72 -18 43 14 65
55 47 85 -15 22 -32 24 -71 8z"/>
<path d="M11332 1479 c-45 -23 -76 -67 -66 -94 18 -45 108 -37 163 14 41 38
40 64 -3 85 -43 20 -42 20 -94 -5z"/>
<path d="M4754 1482 c-27 -18 -35 -51 -19 -82 19 -37 43 -50 94 -50 32 0 44 5
57 25 32 48 -20 115 -88 115 -18 0 -38 -4 -44 -8z"/>
<path d="M10413 1455 c-38 -27 -36 -55 7 -95 33 -31 39 -42 42 -85 3 -47 5
-50 38 -59 46 -12 45 -10 20 -44 -31 -42 -24 -76 17 -80 24 -2 33 -9 35 -25 5
-33 49 -50 98 -37 65 18 47 66 -33 84 -22 5 -26 11 -22 29 4 15 -1 32 -15 49
l-21 27 23 13 c13 7 44 11 69 9 58 -3 102 18 118 58 21 49 12 66 -34 65 -22
-1 -59 -5 -82 -9 -34 -6 -51 -3 -95 19 -29 14 -66 42 -81 61 -30 38 -51 43
-84 20z"/>
<path d="M3346 1437 c-25 -18 -13 -53 24 -72 39 -20 67 -19 80 4 14 26 3 49
-31 66 -35 18 -50 19 -73 2z"/>
<path d="M9635 1440 c-32 -12 -47 -36 -43 -67 3 -24 8 -28 39 -31 66 -6 121
70 70 98 -23 12 -38 12 -66 0z"/>
<path d="M5648 1389 c-28 -16 -22 -47 12 -64 78 -40 141 10 68 55 -37 22 -55
24 -80 9z"/>
<path d="M7442 1374 c-18 -12 -20 -19 -11 -35 15 -30 55 -45 74 -29 22 18 19
46 -7 64 -28 20 -28 20 -56 0z"/>
<path d="M3574 1339 c-14 -16 -19 -37 -20 -94 -1 -65 1 -74 20 -83 150 -70
166 -75 166 -44 0 21 -21 55 -62 98 -15 16 -36 54 -46 84 -20 61 -31 69 -58
39z"/>
<path d="M4289 1334 c-15 -7 -29 -21 -33 -29 -7 -20 36 -65 63 -65 26 0 43 32
35 65 -9 35 -33 46 -65 29z"/>
<path d="M6375 1338 c-29 -16 -35 -29 -24 -50 22 -41 134 -10 127 35 -2 18
-11 22 -43 24 -22 2 -49 -2 -60 -9z"/>
<path d="M8226 1329 c-20 -15 -26 -29 -24 -48 3 -22 9 -26 39 -29 43 -4 89 28
89 63 0 39 -62 47 -104 14z"/>
<path d="M9950 1283 c-12 -15 -18 -33 -15 -42 4 -9 9 -32 12 -51 6 -41 26 -60
64 -60 40 0 53 22 39 65 -10 31 -9 38 9 61 28 36 13 54 -44 54 -35 0 -48 -5
-65 -27z"/>
<path d="M10890 1292 c-19 -11 -44 -35 -55 -56 -17 -32 -18 -38 -5 -47 9 -6
33 -7 60 -3 87 14 251 7 265 -12 9 -12 19 -10 66 15 116 63 110 94 -19 96 -42
1 -97 -3 -123 -7 -36 -7 -53 -5 -90 11 -54 25 -56 25 -99 3z"/>
<path d="M3290 1273 l-21 -26 26 -27 c30 -32 103 -70 133 -70 29 0 104 30 100
41 -2 4 -31 31 -66 58 -54 44 -70 51 -107 51 -35 0 -48 -5 -65 -27z"/>
<path d="M7500 1281 c-23 -45 27 -83 77 -59 21 10 28 20 28 43 0 29 -2 30 -47
33 -39 3 -49 0 -58 -17z"/>
<path d="M3838 1274 c-75 -40 -15 -148 70 -128 64 16 98 63 76 105 -7 15 -21
29 -29 33 -29 11 -89 6 -117 -10z"/>
<path d="M4859 1264 c-11 -14 -10 -19 11 -36 29 -24 64 -20 68 8 2 14 -5 24
-23 32 -34 16 -40 15 -56 -4z"/>
<path d="M7333 1265 c-63 -27 -31 -95 44 -95 56 0 95 64 61 98 -16 16 -65 15
-105 -3z"/>
<path d="M8845 1271 c-32 -14 -57 -47 -53 -73 5 -35 56 -37 97 -3 35 30 40 59
12 75 -23 12 -29 12 -56 1z"/>
<path d="M8026 1247 c-25 -18 -17 -58 15 -76 53 -30 116 18 90 68 -14 25 -76
29 -105 8z"/>
<path d="M9493 1226 c-40 -18 -59 -51 -42 -72 31 -37 144 7 144 56 0 21 -5 25
-35 27 -19 2 -49 -4 -67 -11z"/>
<path d="M4391 1221 c-22 -14 0 -56 41 -81 35 -21 103 -27 113 -10 10 16 -21
58 -58 80 -34 21 -73 25 -96 11z"/>
<path d="M10287 1169 c-16 -4 -35 -13 -43 -20 -17 -14 -19 -60 -3 -76 8 -8 0
-14 -28 -23 -74 -24 -143 -70 -163 -110 -11 -21 -33 -48 -49 -59 -16 -12 -34
-35 -40 -51 -9 -26 -7 -34 10 -51 15 -15 28 -19 47 -15 32 8 82 59 82 84 0 9
9 32 20 50 15 25 27 32 50 32 47 0 40 -38 -17 -104 -27 -30 -59 -69 -72 -86
-39 -52 -61 -61 -116 -51 -29 5 -73 5 -109 0 -60 -9 -61 -9 -88 22 -26 30 -28
31 -87 24 -59 -7 -64 -6 -129 33 -37 22 -81 43 -99 47 -36 7 -87 -14 -97 -41
-7 -19 17 -50 45 -59 10 -3 27 -21 39 -40 27 -44 49 -50 110 -30 27 9 62 15
77 13 23 -2 28 -8 31 -33 7 -78 7 -79 70 -70 31 5 89 9 127 10 39 1 90 9 115
19 28 10 57 15 77 11 24 -4 48 2 97 26 61 30 65 33 59 60 -3 19 1 37 15 56 10
15 29 49 40 76 21 46 22 47 67 47 25 0 62 7 82 15 43 18 108 20 123 3 5 -7 18
-23 28 -36 l17 -22 41 22 c81 46 77 42 66 79 -6 19 -14 46 -17 62 -7 33 -30
35 -85 7 -47 -24 -75 -25 -126 -4 -28 12 -54 14 -91 10 l-52 -6 -9 32 c-7 26
-6 36 7 45 36 27 41 35 41 63 0 35 -24 50 -63 39z"/>
<path d="M5218 1149 c-25 -14 -22 -46 7 -74 42 -43 95 -28 95 25 0 49 -57 76
-102 49z"/>
<path d="M4201 1126 c-37 -44 72 -102 113 -60 21 20 20 30 -4 54 -24 24 -91
27 -109 6z"/>
<path d="M4826 1124 c-21 -21 -20 -27 9 -62 36 -43 91 -67 121 -53 44 20 29
60 -40 105 -45 30 -68 33 -90 10z"/>
<path d="M8838 1128 c-42 -15 -38 -51 9 -73 33 -16 40 -16 63 -4 33 19 37 53
8 73 -25 18 -41 19 -80 4z"/>
<path d="M10063 1115 c-30 -13 -53 -41 -53 -64 0 -39 106 -30 135 12 19 27 19
32 -1 51 -19 19 -39 20 -81 1z"/>
<path d="M9146 1091 c-17 -18 -30 -44 -33 -69 -5 -38 -3 -42 28 -61 39 -24 97
-27 125 -7 26 19 26 100 0 139 -26 39 -82 38 -120 -2z"/>
<path d="M3537 1093 c-14 -13 -6 -24 41 -53 48 -30 76 -37 86 -21 23 37 -96
106 -127 74z"/>
<path d="M5526 1071 c-39 -40 -33 -72 17 -88 70 -23 167 10 167 57 0 33 -47
60 -104 60 -45 0 -56 -4 -80 -29z"/>
<path d="M9658 1084 c-51 -21 -70 -73 -41 -113 11 -14 33 -32 48 -40 26 -12
33 -12 65 5 34 19 35 21 35 75 0 87 -28 106 -107 73z"/>
<path d="M4622 1069 c-18 -16 -20 -24 -11 -40 14 -28 55 -42 80 -28 29 15 20
49 -17 71 -30 17 -31 17 -52 -3z"/>
<path d="M10766 1060 c-81 -25 -90 -106 -14 -133 17 -6 113 38 157 72 32 24
22 47 -26 60 -44 13 -77 13 -117 1z"/>
<path d="M5900 1045 c-10 -13 -10 -19 5 -35 26 -28 82 -45 100 -30 22 18 18
36 -11 59 -31 25 -76 27 -94 6z"/>
<path d="M7602 1043 c-27 -5 -55 -44 -47 -66 16 -39 110 -24 121 19 4 14 1 31
-6 39 -12 15 -24 16 -68 8z"/>
<path d="M4042 1028 c-7 -7 -12 -20 -12 -29 0 -42 147 -113 219 -107 30 2 37
7 39 27 2 14 -1 41 -8 61 -10 31 -18 38 -56 48 -58 16 -167 15 -182 0z"/>
<path d="M6680 1025 c-27 -33 58 -87 110 -70 26 8 25 25 -1 59 -16 20 -29 26
-59 26 -21 0 -43 -6 -50 -15z"/>
<path d="M7158 1009 c-60 -22 -37 -87 26 -75 55 11 76 54 37 76 -23 12 -27 12
-63 -1z"/>
<path d="M8284 1000 c-69 -28 -4 -84 73 -64 25 7 36 29 28 55 -7 21 -61 25
-101 9z"/>
<path d="M6465 980 c-43 -8 -129 -38 -158 -56 -22 -13 -13 -40 16 -48 47 -12
192 -6 214 9 31 22 41 75 17 92 -19 14 -28 14 -89 3z"/>
<path d="M3850 962 c-37 -30 -21 -66 43 -99 103 -54 125 -47 91 29 -40 88 -84
111 -134 70z"/>
<path d="M9890 967 c-28 -14 -38 -46 -18 -58 36 -23 138 0 138 32 0 36 -70 51
-120 26z"/>
<path d="M7992 954 c-12 -8 -22 -19 -22 -24 0 -18 32 -40 59 -40 33 0 51 16
51 46 0 35 -49 46 -88 18z"/>
<path d="M6052 924 c-12 -8 -22 -21 -22 -29 0 -36 93 -46 114 -13 8 13 6 22
-8 37 -23 25 -53 27 -84 5z"/>
<path d="M7380 896 c-18 -22 5 -48 39 -44 20 2 26 9 26 28 0 19 -6 26 -26 28
-14 2 -31 -4 -39 -12z"/>
<path d="M4533 881 c-66 -8 -81 -21 -65 -56 16 -35 56 -48 125 -41 46 5 69 2
107 -15 54 -23 88 -22 104 4 13 21 -6 61 -44 88 -29 21 -145 31 -227 20z"/>
<path d="M5108 884 c-11 -3 -18 -15 -18 -28 0 -13 8 -30 18 -38 66 -58 282
-55 313 5 10 17 8 24 -11 39 -18 15 -40 18 -119 18 -53 0 -112 2 -131 4 -19 3
-43 2 -52 0z"/>
<path d="M8510 862 c-45 -37 -3 -74 110 -98 113 -23 240 8 240 60 0 32 -18 37
-114 30 -49 -4 -90 -3 -102 3 -10 6 -40 13 -65 17 -37 5 -50 3 -69 -12z"/>
<path d="M4876 844 c-20 -19 -20 -24 0 -52 48 -69 160 -67 146 3 -10 52 -110
86 -146 49z"/>
<path d="M6136 828 c-17 -24 -9 -48 26 -72 29 -20 52 -20 69 0 18 22 -6 63
-48 81 -29 12 -33 11 -47 -9z"/>
<path d="M8102 834 c-12 -8 -22 -24 -22 -35 0 -24 32 -57 65 -65 47 -12 80 44
59 100 -8 21 -72 21 -102 0z"/>
<path d="M5642 824 c-29 -20 -28 -40 4 -60 20 -14 33 -15 61 -8 49 12 63 36
39 63 -23 25 -72 28 -104 5z"/>
<path d="M4266 807 c-29 -21 -11 -56 40 -78 47 -21 76 -16 88 16 19 51 -78 98
-128 62z"/>
<path d="M6971 793 c-20 -17 -23 -25 -17 -56 11 -59 78 -77 130 -36 32 25 33
40 4 74 -31 35 -86 43 -117 18z"/>
<path d="M4080 793 c1 -25 53 -58 76 -49 33 13 -2 56 -47 56 -16 0 -29 -3 -29
-7z"/>
<path d="M5845 768 c-27 -15 -35 -28 -35 -59 0 -42 34 -75 102 -98 82 -28 108
-28 108 2 0 21 -20 57 -48 88 -7 8 -22 29 -32 47 -21 35 -56 42 -95 20z"/>
<path d="M7840 767 c-36 -18 -40 -70 -6 -92 61 -40 141 40 88 88 -22 20 -48
21 -82 4z"/>
<path d="M8952 773 c-33 -6 -56 -46 -42 -72 16 -31 54 -36 92 -14 39 22 49 60
22 80 -18 13 -30 14 -72 6z"/>
<path d="M9145 718 c-16 -13 -56 -41 -89 -63 -47 -31 -62 -46 -64 -68 -7 -61
28 -67 100 -20 l36 25 64 -17 c78 -22 96 -21 121 3 25 26 10 56 -40 80 -27 12
-39 26 -45 50 -10 39 -41 43 -83 10z"/>
<path d="M8169 689 c-13 -25 0 -43 27 -37 12 2 20 13 22 31 3 22 -1 27 -17 27
-11 0 -25 -9 -32 -21z"/>
<path d="M4327 689 c-25 -14 -15 -25 56 -58 91 -43 104 -46 112 -21 10 32 -3
57 -39 74 -38 18 -102 21 -129 5z"/>
<path d="M4566 685 c-26 -27 2 -57 76 -84 16 -6 36 -26 47 -48 24 -45 47 -62
121 -91 112 -43 147 -38 96 13 -13 13 -37 47 -52 75 -23 42 -34 52 -68 62 -23
6 -48 18 -56 27 -56 60 -129 80 -164 46z"/>
<path d="M4868 683 c-31 -8 -17 -59 26 -95 29 -24 102 -48 147 -48 35 0 69 20
69 40 0 25 -52 61 -122 84 -76 26 -88 28 -120 19z"/>
<path d="M6664 646 c-28 -21 -8 -47 49 -65 36 -11 52 -12 72 -3 31 14 34 56 6
72 -29 15 -104 12 -127 -4z"/>
<path d="M5341 635 c-20 -9 -62 -15 -105 -15 -63 0 -75 -3 -94 -23 -33 -35
-29 -73 11 -97 44 -28 100 -25 163 7 50 25 57 26 111 16 32 -6 66 -14 75 -18
13 -5 21 0 29 18 13 29 -8 78 -44 102 -35 23 -106 28 -146 10z"/>
<path d="M7284 636 c-43 -19 -48 -40 -18 -75 46 -55 116 -52 140 5 29 70 -36
107 -122 70z"/>
<path d="M5764 630 c-25 -10 -35 -32 -24 -50 4 -7 32 -15 62 -18 42 -3 57 0
68 12 11 15 11 20 -6 35 -23 22 -71 32 -100 21z"/>
<path d="M8293 625 c-55 -24 -32 -75 33 -75 69 0 98 42 52 74 -27 19 -43 19
-85 1z"/>
<path d="M7600 617 c-30 -10 -35 -17 -35 -42 0 -26 5 -31 35 -38 74 -18 123
39 68 77 -26 18 -23 18 -68 3z"/>
<path d="M4536 597 c-16 -12 -16 -14 3 -31 22 -20 51 -15 51 8 0 24 -34 38
-54 23z"/>
<path d="M6460 595 c-11 -13 -10 -27 5 -75 15 -50 16 -64 5 -90 -17 -42 -46
-60 -97 -60 -29 0 -57 -8 -83 -25 -32 -20 -53 -25 -104 -25 -58 0 -67 -3 -85
-26 -32 -40 -29 -106 5 -133 50 -39 109 -21 165 51 50 64 57 67 138 68 73 0
74 0 110 -39 21 -23 49 -42 69 -46 24 -5 40 -17 54 -41 20 -35 25 -36 133 -49
37 -4 56 -12 75 -34 46 -50 162 -53 256 -5 53 27 78 24 132 -13 29 -19 47 -23
111 -23 80 0 121 7 121 20 0 5 -27 27 -60 49 -50 34 -68 41 -110 41 -56 0 -73
16 -85 84 -8 49 -45 86 -85 86 -78 0 -95 -54 -35 -109 41 -37 47 -71 13 -71
-35 1 -218 19 -254 26 -25 5 -37 16 -59 56 -30 55 -43 62 -134 73 -42 5 -70
14 -83 27 -24 24 -20 37 18 63 33 23 33 28 1 128 -23 75 -52 107 -97 107 -15
0 -33 -7 -40 -15z"/>
<path d="M8590 596 c-78 -28 -80 -133 -4 -170 19 -9 48 -16 64 -16 30 0 30 1
30 54 0 29 7 69 15 88 10 26 11 38 3 46 -15 15 -63 14 -108 -2z"/>
<path d="M9374 551 c-17 -11 -38 -36 -47 -57 -26 -66 -82 -104 -151 -104 -18
0 -67 -18 -111 -40 -43 -22 -92 -40 -109 -40 -17 0 -49 -5 -71 -11 -36 -10
-41 -9 -58 12 -51 64 -109 75 -158 31 -40 -35 -35 -56 29 -120 49 -50 56 -51
127 -27 22 7 63 16 91 19 28 4 91 20 140 37 49 16 124 36 168 44 46 8 87 22
100 33 31 27 112 72 131 72 9 0 23 -7 32 -15 9 -10 23 -13 35 -9 41 13 108 45
108 52 0 4 -21 14 -48 22 -39 13 -49 21 -58 49 -18 57 -98 84 -150 52z"/>
<path d="M6182 554 c-7 -3 -17 -14 -22 -25 -9 -16 -5 -21 27 -38 49 -25 139
-36 176 -22 65 25 -4 81 -106 87 -34 2 -68 1 -75 -2z"/>
<path d="M5664 540 c-50 -7 -90 -32 -99 -60 -9 -28 18 -68 50 -76 27 -7 39 -5
125 21 70 21 123 9 175 -39 44 -42 47 -86 10 -140 -14 -20 -25 -45 -25 -55 0
-24 40 -41 95 -41 39 0 45 3 51 24 3 13 0 42 -6 65 -8 30 -8 46 1 62 42 80 25
112 -66 129 -37 6 -76 21 -100 39 -88 63 -145 82 -211 71z"/>
<path d="M8163 493 c-37 -7 -47 -28 -35 -75 15 -56 4 -71 -68 -97 -75 -28 -92
-54 -67 -106 9 -19 13 -35 8 -35 -5 0 -19 -21 -32 -46 -22 -46 -22 -47 -3 -61
24 -18 123 -10 174 15 59 29 51 80 -17 109 -36 15 -40 24 -18 43 8 7 15 19 15
26 0 22 61 54 102 54 29 0 47 8 78 36 25 23 40 45 40 59 0 30 -41 63 -89 71
-20 3 -43 7 -51 8 -8 2 -25 1 -37 -1z"/>
<path d="M6671 473 c-45 -37 -2 -83 78 -83 40 0 71 23 71 53 0 21 -28 36 -82
43 -34 5 -48 2 -67 -13z"/>
<path d="M5076 464 c-22 -56 5 -96 81 -118 32 -9 88 -25 124 -36 83 -25 121
-25 144 0 20 22 50 25 92 9 15 -6 55 -15 88 -20 33 -4 75 -11 93 -15 29 -6 32
-4 32 20 0 29 -18 41 -75 51 -22 4 -58 18 -79 32 -38 24 -42 25 -93 12 -44
-10 -64 -10 -103 0 -40 10 -56 10 -101 -3 -79 -24 -96 -21 -115 17 -32 64 -74
88 -88 51z"/>
<path d="M7827 462 c-10 -10 -17 -28 -17 -41 0 -14 -9 -25 -26 -31 -34 -13
-119 -13 -168 1 -49 13 -82 5 -89 -23 -8 -30 6 -52 55 -86 42 -27 43 -30 40
-77 -2 -41 2 -53 24 -76 26 -27 26 -29 10 -53 -16 -25 -15 -26 10 -32 14 -4
49 -4 77 0 56 6 77 24 77 64 0 13 11 38 25 56 33 44 32 63 -5 70 -16 3 -43 9
-60 12 -20 4 -30 12 -30 24 0 23 15 34 78 56 28 10 52 24 52 30 0 6 11 28 25
48 25 36 25 36 5 56 -25 25 -62 26 -83 2z"/>
<path d="M8913 465 c-25 -18 -30 -44 -11 -63 17 -17 83 -15 119 4 24 12 30 21
27 42 -3 25 -7 27 -58 30 -38 2 -62 -2 -77 -13z"/>
<path d="M6889 454 c-11 -14 -10 -18 6 -30 10 -8 35 -14 56 -14 22 0 50 -10
73 -25 82 -56 89 -57 156 -35 32 11 77 20 98 20 59 0 103 55 70 88 -17 17 -53
15 -96 -7 -31 -15 -55 -18 -142 -16 -66 2 -121 9 -149 19 -54 20 -55 20 -72 0z"/>
<path d="M8460 355 c-36 -14 -85 -27 -109 -31 -80 -12 -166 -121 -124 -156 26
-21 159 -16 214 9 42 19 46 24 55 68 8 45 12 49 48 59 47 13 66 37 47 60 -18
22 -54 19 -131 -9z"/>
<path d="M7430 287 c-57 -29 -12 -110 52 -94 28 7 55 64 44 92 -7 19 -62 19
-96 2z"/>
<path d="M8546 258 c-9 -12 -16 -27 -16 -32 0 -6 -14 -25 -32 -43 -44 -45 -30
-59 45 -43 80 16 122 70 92 116 -20 32 -68 32 -89 2z"/>
<path d="M5605 251 c-11 -18 22 -38 95 -55 92 -23 140 -20 140 9 0 33 -216 75
-235 46z"/>
<path d="M6465 155 c-27 -8 -86 -15 -130 -15 -158 -1 -125 -41 48 -58 117 -11
165 -4 198 29 49 49 -13 73 -116 44z"/>
</g>
</svg>
