<?xml version="1.0" standalone="no"?>
<!DOCTYPE svg PUBLIC "-//W3C//DTD SVG 20010904//EN"
 "http://www.w3.org/TR/2001/REC-SVG-20010904/DTD/svg10.dtd">
<svg version="1.0" xmlns="http://www.w3.org/2000/svg"
 width="1000.000000pt" height="1000.000000pt" viewBox="0 0 1000.000000 1000.000000"
 preserveAspectRatio="xMidYMid meet">
<metadata>
Created by potrace 1.14, written by Peter Selinger 2001-2017
</metadata>
<g transform="translate(0.000000,1000.000000) scale(0.100000,-0.100000)"
fill="#000000" stroke="none">
<path d="M4645 9859 c-856 -44 -1550 -209 -2143 -508 -922 -467 -1481 -1254
-1687 -2376 -83 -453 -96 -969 -34 -1429 152 -1142 706 -2118 1575 -2774 328
-247 783 -477 1264 -640 l140 -47 0 -335 c0 -483 41 -1178 76 -1283 64 -193
404 -332 769 -314 205 10 353 49 458 121 70 48 92 84 106 176 17 103 13 553
-9 950 -11 201 -20 390 -20 421 l0 56 248 -5 c1053 -20 1979 233 2619 715 472
356 799 806 1030 1418 137 363 229 832 264 1338 16 247 6 748 -20 967 -53 452
-146 825 -304 1225 -326 825 -893 1485 -1614 1878 -411 225 -896 370 -1410
421 -302 31 -952 43 -1308 25z m1140 -379 c398 -27 744 -103 1090 -239 991
-393 1696 -1298 1960 -2516 136 -628 139 -1370 8 -2030 -127 -641 -383 -1160
-768 -1554 -498 -510 -1175 -796 -2089 -881 -159 -15 -289 -20 -542 -20 l-332
0 -6 267 c-3 148 -8 392 -12 543 l-5 275 87 60 c598 409 823 524 1219 624 340
85 593 91 919 20 49 -10 91 -17 93 -15 7 7 -79 62 -162 104 -273 137 -635 195
-985 158 -334 -36 -656 -137 -1010 -316 -74 -38 -135 -68 -136 -67 -4 5 26
365 41 487 61 519 224 1179 422 1710 288 772 628 1299 1286 1992 98 103 177
188 175 188 -14 0 -149 -61 -260 -116 -575 -288 -1144 -780 -1601 -1385 -204
-271 -402 -594 -579 -946 l-92 -183 -50 72 c-538 759 -1242 1189 -1947 1188
-74 0 -140 -4 -147 -9 -8 -5 11 -14 55 -26 343 -91 621 -239 881 -468 331
-291 541 -577 845 -1153 l107 -201 -41 -119 c-218 -648 -371 -1466 -420 -2256
l-13 -196 -85 30 c-368 130 -763 322 -1021 499 -313 213 -627 527 -856 854
-343 493 -579 1099 -669 1720 -128 888 45 1845 450 2485 433 684 1134 1120
2120 1320 234 47 600 93 875 110 183 11 983 5 1195 -10z"/>
<path d="M4483 8615 c-94 -21 -194 -77 -261 -149 -100 -108 -142 -214 -142
-361 0 -146 46 -254 154 -360 133 -131 301 -181 475 -140 184 44 339 192 386
370 17 68 19 189 4 255 -30 133 -137 270 -259 334 -116 61 -233 78 -357 51z"/>
<path d="M7208 6430 c-202 -36 -361 -172 -418 -359 -24 -75 -26 -211 -6 -287
34 -130 137 -260 252 -321 151 -80 325 -83 484 -6 73 35 188 151 224 224 117
242 44 522 -175 668 -101 67 -250 101 -361 81z"/>
<path d="M2806 5124 c-254 -61 -426 -318 -386 -576 42 -277 311 -480 580 -439
174 27 309 121 390 272 105 198 68 443 -94 605 -130 130 -312 181 -490 138z"/>
</g>
</svg>
